<?xml version="1.0" encoding="utf-8"?>
<!-- Generator: Adobe Illustrator 25.0.1, SVG Export Plug-In . SVG Version: 6.00 Build 0)  -->
<svg version="1.1" id="Layer_1" xmlns="http://www.w3.org/2000/svg" xmlns:xlink="http://www.w3.org/1999/xlink" x="0px" y="0px"
	 viewBox="0 0 595.28 841.89" style="enable-background:new 0 0 595.28 841.89;" xml:space="preserve">
<style type="text/css">
	.st0{fill:#FDFCFC;}
	.st1{fill:#2C3783;}
	.st2{fill:#DB2127;}
</style>
<path class="st0" d="M297.43,597.75c-68.25,0-136.51-0.01-204.76,0.05c-2.46,0-3.37-0.24-3.37-3.12
	c0.09-114.97,0.09-229.93,0.01-344.9c0-2.52,0.48-3.08,3.06-3.08c136.63,0.08,273.25,0.08,409.88-0.01c2.8,0,3.17,0.81,3.17,3.32
	c-0.07,114.85-0.07,229.7,0.01,344.55c0,2.62-0.55,3.26-3.23,3.26C433.94,597.73,365.69,597.75,297.43,597.75z M160.68,560.38
	c8.62,8.73,16.95,17.19,25.32,25.62c1.88,1.9,3.97,1.85,5.85,0.04c2.52-2.42,5.27-4.61,7.74-7.05
	c26.87-26.53,53.71-53.11,80.43-79.79c48.72-48.64,97.42-97.29,145.98-146.09c18.81-18.9,37.95-37.49,56.05-57.09
	c1.66-1.8,1.47-2.72-0.09-4.26c-6.94-6.86-13.8-13.82-20.69-20.73c-5.89-5.92-5.87-5.89-11.93,0.21
	c-35.06,35.34-70.05,70.74-105.21,105.97c-53.95,54.07-108.01,108.02-162.04,162.01C174.96,546.35,167.74,553.41,160.68,560.38z
	 M427.4,279.96c-59.96,0-119.03,0-178.11,0c-43.43,0-86.86,0.04-130.3-0.08c-2.99-0.01-3.62,0.76-3.59,3.65
	c0.16,14.47,0.16,28.95,0,43.43c-0.03,2.73,0.77,3.23,3.31,3.2c11.77-0.14,23.54-0.06,35.31-0.06c73.33,0,146.66-0.01,219.99,0.04
	c2.27,0,3.9-0.57,5.49-2.26c4.03-4.29,8.28-8.36,12.44-12.52C403.56,303.74,415.2,292.13,427.4,279.96z M231.55,561.69
	c-0.13-0.01,0.21,0.04,0.54,0.04c81.19,0,162.37-0.01,243.56,0.07c2.68,0,2.94-0.97,2.93-3.22c-0.1-14.12-0.05-28.24-0.05-42.36
	c0-1.49-0.08-2.98,0.54-4.52c-0.7-0.04-1.28-0.1-1.86-0.1c-64.71,0-129.43,0-194.14-0.04c-1.69,0-2.76,0.58-3.91,1.75
	C263.28,529.49,247.36,545.63,231.55,561.69z M350.09,357.26c-2.45,0-4.76,0-7.08,0c-74.84,0-149.68,0.01-224.52-0.05
	c-2.35,0-3.11,0.46-3.09,2.97c0.13,14.83,0.14,29.65-0.03,44.48c-0.03,2.78,0.82,3.2,3.33,3.18c19.06-0.11,38.13-0.07,57.19-0.08
	c40.24,0,80.49-0.02,120.73,0.03c2.01,0,3.45-0.47,4.91-1.95c4.54-4.6,9.36-8.93,13.92-13.51
	C326.98,380.75,338.41,369.09,350.09,357.26z M307.64,484.76c56.4,0,112.39-0.02,168.38,0.06c2.46,0,2.54-1.01,2.53-2.9
	c-0.06-14.59-0.13-29.18,0.05-43.77c0.04-2.97-0.73-3.62-3.64-3.61c-35.65,0.11-71.31,0.28-106.96-0.1
	c-7.45-0.08-12.75,1.77-17.96,7.33C336.41,456.35,322.05,470.25,307.64,484.76z M272.74,434.62c-51.6,0-103,0.01-154.4-0.05
	c-2.23,0-2.96,0.48-2.94,2.85c0.12,14.82,0.12,29.64,0,44.46c-0.02,2.35,0.64,2.89,2.9,2.88c33.99-0.14,67.98-0.21,101.97-0.22
	c2.04,0,3.48-0.54,4.92-2c6.02-6.12,12.2-12.08,18.24-18.18C253.17,454.55,262.84,444.67,272.74,434.62z M385.42,407.78
	c30.26,0,60.62-0.03,90.98,0.05c2.54,0.01,2.13-1.42,2.13-2.91c0-14.94-0.05-29.89,0.05-44.83c0.01-2.25-0.46-2.93-2.88-2.91
	c-12.83,0.13-25.65,0.08-38.48-0.02c-1.82-0.01-3.03,0.56-4.26,1.85c-5.84,6.12-11.77,12.15-17.67,18.2
	C405.36,387.37,395.44,397.52,385.42,407.78z"/>
<path class="st1" d="M160.68,560.38c7.06-6.97,14.28-14.03,21.42-21.17c54.03-53.99,108.09-107.94,162.04-162.01
	c35.16-35.24,70.15-70.64,105.21-105.97c6.05-6.1,6.03-6.12,11.93-0.21c6.89,6.92,13.74,13.87,20.69,20.73
	c1.56,1.54,1.75,2.46,0.09,4.26c-18.1,19.61-37.24,38.19-56.05,57.09c-48.56,48.8-97.27,97.45-145.98,146.09
	c-26.72,26.68-53.56,53.26-80.43,79.79c-2.47,2.44-5.22,4.63-7.74,7.05c-1.88,1.8-3.96,1.86-5.85-0.04
	C177.64,577.57,169.3,569.11,160.68,560.38z"/>
<path class="st2" d="M427.4,279.96c-12.2,12.17-23.83,23.79-35.47,35.4c-4.16,4.16-8.41,8.24-12.44,12.52
	c-1.59,1.69-3.22,2.26-5.49,2.26c-73.33-0.05-146.66-0.04-219.99-0.04c-11.77,0-23.54-0.08-35.31,0.06
	c-2.54,0.03-3.34-0.47-3.31-3.2c0.16-14.47,0.16-28.95,0-43.43c-0.03-2.89,0.61-3.66,3.59-3.65c43.43,0.11,86.86,0.08,130.3,0.08
	C308.36,279.96,367.44,279.96,427.4,279.96z"/>
<path class="st2" d="M231.55,561.69c15.81-16.05,31.73-32.2,47.6-48.39c1.15-1.17,2.22-1.75,3.91-1.75
	c64.71,0.05,129.43,0.04,194.14,0.04c0.58,0,1.16,0.06,1.86,0.1c-0.62,1.54-0.54,3.03-0.54,4.52c0.01,14.12-0.04,28.24,0.05,42.36
	c0.02,2.26-0.24,3.23-2.93,3.22c-81.19-0.08-162.37-0.07-243.56-0.07C231.75,561.73,231.42,561.68,231.55,561.69z"/>
<path class="st2" d="M350.09,357.26c-11.68,11.84-23.11,23.49-34.63,35.07c-4.56,4.58-9.38,8.9-13.92,13.51
	c-1.46,1.48-2.9,1.96-4.91,1.95c-40.24-0.05-80.49-0.04-120.73-0.03c-19.06,0-38.13-0.04-57.19,0.08c-2.51,0.01-3.36-0.41-3.33-3.18
	c0.17-14.82,0.15-29.65,0.03-44.48c-0.02-2.51,0.73-2.97,3.09-2.97c74.84,0.07,149.68,0.05,224.52,0.05
	C345.32,357.26,347.64,357.26,350.09,357.26z"/>
<path class="st2" d="M307.64,484.76c14.41-14.51,28.77-28.41,42.41-42.98c5.21-5.56,10.5-7.41,17.96-7.33
	c35.65,0.38,71.3,0.21,106.96,0.1c2.91-0.01,3.68,0.64,3.64,3.61c-0.17,14.59-0.1,29.18-0.05,43.77c0.01,1.89-0.08,2.9-2.53,2.9
	C420.03,484.74,364.03,484.76,307.64,484.76z"/>
<path class="st2" d="M272.74,434.62c-9.89,10.05-19.57,19.93-29.3,29.75c-6.04,6.1-12.22,12.06-18.24,18.18
	c-1.44,1.46-2.88,2-4.92,2c-33.99,0.01-67.98,0.08-101.97,0.22c-2.26,0.01-2.92-0.53-2.9-2.88c0.12-14.82,0.12-29.64,0-44.46
	c-0.02-2.38,0.71-2.85,2.94-2.85C169.74,434.63,221.14,434.62,272.74,434.62z"/>
<path class="st2" d="M385.42,407.78c10.02-10.26,19.94-20.41,29.86-30.57c5.91-6.05,11.84-12.08,17.67-18.2
	c1.23-1.29,2.44-1.87,4.26-1.85c12.83,0.1,25.66,0.15,38.48,0.02c2.42-0.03,2.89,0.66,2.88,2.91c-0.09,14.94-0.05,29.89-0.05,44.83
	c0,1.49,0.42,2.92-2.13,2.91C446.04,407.75,415.68,407.78,385.42,407.78z"/>
</svg>
