<?xml version="1.0" encoding="utf-8"?>
<!DOCTYPE svg PUBLIC "-//W3C//DTD SVG 1.0//EN" "http://www.w3.org/TR/2001/REC-SVG-20010904/DTD/svg10.dtd">
<svg version="1.0" xmlns="http://www.w3.org/2000/svg" width="1024px" height="1024px" viewBox="0 0 1024 1024" preserveAspectRatio="xMidYMid meet">
 <g fill="#fcfcfb">
  <path d="M0 512 l0 -512 512 0 512 0 0 512 0 512 -512 0 -512 0 0 -512z m281.90 391.05 c0.45 -0.25 1.90 -0.95 3.25 -1.55 1.55 -0.75 2.35 -1.45 2.35 -2.10 0 -0.90 -1 -1.25 -1.70 -0.55 -1.05 1.05 -4.60 1.65 -9.95 1.65 -5 0 -6.20 -0.15 -8 -1.05 -6.60 -3.35 -9.35 -8.15 -9.35 -16.45 0 -6.15 1.20 -9.50 4.55 -13 3.20 -3.30 6.50 -4.50 12.35 -4.50 4.35 0 7.95 0.70 8.90 1.65 0.20 0.20 0.80 0.35 1.30 0.35 0.50 0 0.90 0.25 0.90 0.50 0 0.30 0.25 0.50 0.55 0.50 0.30 0 0.45 -0.60 0.35 -1.30 -0.15 -1.45 -2.60 -3.05 -6.20 -4.10 -2.60 -0.75 -9.70 -0.80 -11.55 -0.05 -4.20 1.70 -6.20 3 -8.90 5.70 -4.30 4.30 -6.25 8.75 -6.25 14.25 0 4.60 1 7.45 4.20 12.15 2.85 4.20 7.45 7.30 12.30 8.40 2.10 0.50 9.65 0.15 10.90 -0.50z m44.95 -1.10 c8.35 -4 14 -14.35 12.15 -22.35 -1.75 -7.60 -6.45 -13.15 -13.45 -16 -2.10 -0.85 -3.70 -1.10 -7.35 -1.10 -2.55 0 -4.80 0.20 -4.95 0.50 -0.15 0.30 -0.65 0.50 -1.05 0.50 -1.50 0 -5.40 2.25 -7.95 4.55 -4.10 3.75 -6.40 9.15 -6.45 14.95 0 3.20 1.50 9.50 2.30 9.50 0.20 0 0.40 0.30 0.40 0.70 0 1.10 4.25 5.55 6.85 7.20 2.10 1.35 4.70 2.45 7.90 3.30 0.55 0.15 2.60 0.15 4.60 0.05 2.75 -0.15 4.35 -0.55 7 -1.80z m89.40 1 c0.25 -0.25 0.75 -0.45 1.10 -0.45 1.35 0 4.75 -2.75 5.90 -4.70 1.55 -2.75 1.90 -4.80 1.25 -7.30 -0.95 -3.55 -3.30 -5.55 -11.15 -9.40 -3.90 -1.90 -7.50 -3.90 -8 -4.45 -0.75 -0.85 -0.85 -1.75 -0.75 -4.95 0.15 -3.85 0.20 -3.95 1.85 -5.05 1.50 -1 2.30 -1.15 6.80 -1.15 3.45 0 5.70 0.25 6.90 0.75 2.30 0.95 2.35 0.95 2.35 -0.25 0 -0.70 -0.75 -1.35 -2.75 -2.25 -8.50 -3.85 -19.25 1 -19.25 8.75 0 2.10 1.10 4.70 2.65 6.20 1.50 1.45 5.45 3.75 9.60 5.60 2.45 1.05 5.20 2.60 6.10 3.40 1.60 1.35 1.65 1.50 1.65 5.55 0 4.05 -0.05 4.20 -1.55 5.45 -2.05 1.75 -2.95 1.90 -9.55 1.70 -4.15 -0.10 -6.10 -0.40 -7.35 -1 -2.10 -1.10 -2.05 -1.10 -2.05 0.05 0 1.10 4.30 3.45 7.45 4.10 2.20 0.45 8.10 0.10 8.80 -0.60z m126.35 -0.70 c4.40 -2.20 6.75 -4.95 8.15 -9.55 0.55 -1.90 0.75 -5.50 0.75 -16.05 l0 -13.65 -2 0 -2 0 0 14.05 c0 15 -0.25 16.95 -2.40 19.85 -1.85 2.55 -4.85 3.60 -10 3.60 -5.60 -0.05 -8.15 -1.20 -10.35 -4.75 l-1.50 -2.40 -0.15 -15.20 -0.15 -15.15 -2 0 -2.05 0 0.20 14.90 c0.20 14.30 0.25 14.95 1.35 17.10 2.10 4.10 6.60 7.60 11.05 8.55 3.20 0.70 8.30 0.10 11.10 -1.30z m52.50 -0.40 c2.25 -1.20 3.20 -2 3.30 -2.80 0.15 -0.95 0.05 -1.05 -0.80 -0.60 -2.85 1.50 -5.60 2.05 -10.95 2.05 -4.90 0 -5.95 -0.15 -8.30 -1.25 -3.60 -1.65 -5.45 -3.45 -7.45 -7.30 -1.55 -3.10 -1.60 -3.40 -1.60 -8.95 0 -5.10 0.15 -6.10 1.30 -8.55 2.80 -6.10 7.75 -8.95 15.60 -8.95 4.55 0 6.60 0.40 9.95 2.05 2.45 1.20 2.45 1.20 2.25 -0.35 -0.15 -1.45 -3.70 -3.70 -5.85 -3.70 -0.55 0 -1.15 -0.20 -1.30 -0.50 -0.15 -0.25 -2.25 -0.50 -4.65 -0.50 -4.40 0 -6.90 0.60 -10.65 2.55 -2.95 1.45 -8.45 7.15 -8.45 8.70 0 0.40 -0.20 0.75 -0.50 0.75 -0.25 0 -0.50 0.40 -0.50 0.90 0 0.50 -0.15 1.10 -0.35 1.30 -0.20 0.20 -0.65 1.65 -0.95 3.20 -0.90 4.40 0.50 10.35 3.55 14.85 1.40 2.10 5.30 5.75 6.10 5.75 0.35 0 0.65 0.15 0.65 0.40 0 0.20 0.75 0.65 1.65 1 0.85 0.40 2.05 0.90 2.60 1.10 1.75 0.80 3.40 0.95 7.85 0.70 3.75 -0.15 4.80 -0.40 7.50 -1.85z m42.90 0.85 c3.35 -1.15 5.50 -2.65 5.50 -3.75 0 -0.55 -0.15 -0.95 -0.35 -0.85 -0.70 0.35 -2.90 1.25 -4.30 1.85 -0.75 0.30 -3.95 0.55 -7.10 0.55 -4.90 0 -6.10 -0.15 -8.35 -1.15 -3.20 -1.45 -6.35 -4.35 -7.95 -7.40 -1.05 -1.95 -1.20 -2.85 -1.20 -8.70 0 -5.65 0.15 -6.80 1.10 -8.75 2.90 -6.05 8.05 -9 15.85 -9 4.30 0 9.60 1.25 11.05 2.55 0.80 0.80 1.25 0.50 1.25 -0.80 0 -0.75 -0.35 -1.40 -0.85 -1.60 -0.50 -0.20 -1 -0.50 -1.15 -0.65 -0.15 -0.20 -1.60 -0.85 -3.30 -1.45 -2.25 -0.75 -4.20 -1.05 -7.60 -1.05 -2.50 0 -4.70 0.25 -4.85 0.50 -0.15 0.30 -0.75 0.50 -1.25 0.50 -1.55 0 -6.60 3.05 -8.70 5.20 -2.65 2.75 -4.05 5.10 -5.25 8.80 -1.35 4 -1.30 7 0 11.05 2.30 7 6.80 11.60 14.20 14.50 2.80 1.10 9.65 0.95 13.25 -0.35z m64.55 0.20 c2.95 -1.10 7.60 -4.35 9.25 -6.55 3.50 -4.65 4.80 -8.15 4.80 -13.05 0 -8 -4.80 -15.75 -11.70 -18.75 -1.45 -0.65 -3.05 -1.35 -3.50 -1.60 -0.50 -0.25 -2.75 -0.45 -5.05 -0.45 -8.70 0 -15.45 4.25 -19.35 12.25 -1.55 3.20 -1.70 3.90 -1.70 8.25 0 4.50 0.10 5 1.85 8.50 1.05 2.05 2.50 4.45 3.30 5.30 2.60 2.85 7.95 5.95 11.55 6.75 2.30 0.50 8.25 0.10 10.55 -0.65z m-346.05 -15.15 l0 -15.75 1.70 0 c1.15 0 1.90 0.35 2.50 1.15 0.45 0.60 5.70 7.65 11.70 15.60 9.95 13.35 11 14.50 12.50 14.65 l1.60 0.15 0 -20.30 0 -20.30 -1.60 0.15 -1.65 0.15 0 15.65 0 15.60 -1.80 0 c-1.75 0 -2 -0.25 -10 -10.85 -4.50 -6 -8.30 -11 -8.45 -11.15 -0.15 -0.15 -1.85 -2.35 -3.75 -4.85 -2.95 -3.90 -3.75 -4.65 -4.85 -4.65 l-1.40 0 0 20.25 0 20.25 1.75 0 1.75 0 0 -15.75z m94.50 -2.75 l0 -18.50 7 0 7 0 0 -1.75 0 -1.75 -16.25 0 -16.25 0 0 1.75 0 1.75 7 0 7 0 0 18.50 0 18.50 2.25 0 2.25 0 0 -18.50z m29.50 10 l0 -8.50 5.20 0 5.15 0 2.65 4 c1.45 2.20 3.05 4.45 3.55 5.05 0.50 0.60 0.95 1.30 0.95 1.50 0 0.20 0.30 0.70 0.65 1.05 0.35 0.35 1.40 1.70 2.25 3.05 1.35 1.90 1.90 2.35 3.10 2.35 0.85 0 1.50 -0.10 1.50 -0.25 0 -0.30 -2.05 -3.35 -2.55 -3.75 -0.15 -0.15 -1.15 -1.50 -2.20 -3 -1.05 -1.50 -2.70 -3.80 -3.60 -5.05 -1.10 -1.55 -1.65 -2.90 -1.65 -4.05 0 -1.55 0.20 -1.80 1.40 -2.05 2 -0.40 5.35 -3.50 6.55 -6.10 1.10 -2.35 1.45 -6.95 0.55 -7.50 -0.25 -0.15 -0.50 -0.65 -0.50 -1.05 0 -0.85 -0.60 -1.70 -3 -4.05 -3 -3 -4.25 -3.30 -14.35 -3.55 l-9.15 -0.20 0 20.30 0 20.30 1.75 0 1.75 0 0 -8.50z m181 -11.75 l0 -20.25 -2 0 -2 0 0 20.25 0 20.25 2 0 2 0 0 -20.25z m73 4.50 l0 -15.75 1.65 0 c1.45 0 1.90 0.40 4.35 3.80 1.50 2.10 3 4.10 3.25 4.40 0.30 0.30 1.10 1.35 1.75 2.30 0.65 0.95 1.35 1.85 1.50 2 0.15 0.15 0.85 1.05 1.50 2 0.65 0.95 1.35 1.85 1.50 2 0.15 0.15 0.85 1.05 1.50 2 0.65 0.95 1.35 1.85 1.50 2 0.15 0.15 0.85 1.05 1.50 2 0.70 0.95 1.75 2.30 2.35 3 0.65 0.70 1.30 1.65 1.45 2.15 0.15 0.45 0.45 0.85 0.65 0.85 0.15 0 0.75 0.70 1.20 1.50 0.75 1.20 1.25 1.50 2.65 1.50 l1.70 0 0 -20.25 0 -20.25 -2.05 0 -2.05 0 0.15 15.75 0.20 15.75 -1.75 0 c-1.50 -0.05 -1.95 -0.35 -3.10 -2.15 -0.75 -1.15 -1.85 -2.65 -2.40 -3.35 -0.55 -0.70 -2.20 -2.80 -3.60 -4.75 -1.45 -1.90 -2.75 -3.60 -2.90 -3.75 -0.15 -0.15 -0.85 -1.05 -1.50 -2 -0.70 -0.95 -1.75 -2.30 -2.35 -3 -0.65 -0.70 -1.15 -1.40 -1.15 -1.60 0 -0.15 -0.30 -0.65 -0.65 -1 -0.35 -0.35 -2.20 -2.75 -4.10 -5.25 -3.15 -4.20 -3.60 -4.65 -5.10 -4.65 l-1.65 0 0 20.25 0 20.25 2 0 2 0 0 -15.75z m-32.25 -36.35 c1.90 -1.80 1.95 -1.90 0.75 -1.85 -0.95 0 -1.70 0.65 -2.95 2.60 -1.80 2.70 -1.40 2.55 2.20 -0.75z m-335.20 -17.60 c3.70 -0.75 6.20 -1.80 9.35 -3.90 l2.10 -1.45 0 -8.95 0 -9 -9 0 -9 0 0 2.30 0 2.35 6.40 -0.20 6.35 -0.20 0 6.75 0 6.70 -3.25 1.10 c-3.65 1.25 -11.05 1.60 -14.05 0.65 -6.55 -2.10 -10.55 -5.90 -13 -12.45 -1.35 -3.60 -0.45 -17 1.15 -17 0.20 0 0.40 -0.30 0.40 -0.70 0 -1.50 4.90 -6.15 8.10 -7.60 2.75 -1.25 3.85 -1.45 8.60 -1.60 6.05 -0.20 8.65 0.30 12.75 2.45 1.50 0.80 2.90 1.45 3.15 1.45 0.20 0 0.40 -0.65 0.40 -1.45 0 -1.60 -1.15 -2.65 -4.65 -4.25 -12.20 -5.60 -27.45 -0.60 -33.10 10.90 -2.50 5.05 -3.45 9.70 -2.75 13.55 0.35 1.65 0.75 3.45 1 4 1.30 3.40 1.75 4.25 3.30 6.55 2.20 3.35 5.70 6.25 9.75 8.10 5.75 2.65 10.05 3.15 16 1.90z m374.65 0.10 c1.10 -0.30 2.25 -0.75 2.55 -1 0.25 -0.20 0.80 -0.40 1.25 -0.40 0.45 0 1.65 -0.80 2.70 -1.75 2.80 -2.55 4.55 -2.40 7.25 0.50 1.80 1.95 2.35 2.25 4.05 2.25 1.10 0 2 -0.10 2 -0.25 0 -0.15 -1.45 -1.75 -3.25 -3.50 -3.60 -3.65 -4 -5.10 -2.45 -8.65 1.65 -3.75 2.15 -5.30 2.90 -8.75 0.35 -1.35 0.30 -1.40 -1.55 -1.25 -2.05 0.15 -1.85 -0.20 -3.30 6.15 l-0.70 3 -2 0.15 c-2 0.15 -2.20 0 -6.85 -4.60 -4.50 -4.45 -4.80 -4.90 -4.80 -6.80 0 -1.80 0.15 -2.05 1.70 -2.70 2.35 -1 6.70 -5.35 7.05 -7.10 0.20 -0.80 0.45 -1.75 0.55 -2.15 0.80 -2.55 -2.70 -7.70 -6.55 -9.50 -2.35 -1.10 -7 -1.45 -8.65 -0.60 -0.45 0.25 -1.50 0.75 -2.25 1.10 -3.15 1.45 -5.85 5.65 -5.85 8.90 0 1.90 1.35 5.20 3 7.55 0.55 0.75 1 2.20 1 3.15 0 1.45 -0.30 1.95 -1.70 2.80 -6.95 4.35 -8.25 11.30 -3.20 17.65 3.70 4.70 11.55 7.40 17.10 5.80z m-481.20 -23.40 l0 -23 -2.50 0 -2.50 0 0 23 0 23 2.50 0 2.50 0 0 -23z m25 5.50 l0 -17.50 1.90 0 c1.60 0 2.05 0.25 3.10 1.90 0.70 1 1.35 1.95 1.55 2.10 0.15 0.15 3.05 3.95 6.45 8.50 3.40 4.55 6.35 8.35 6.50 8.50 0.15 0.15 0.85 1.05 1.50 2 0.65 0.95 1.35 1.85 1.50 2 0.15 0.15 1.95 2.45 3.95 5.15 3.70 4.85 3.70 4.85 5.85 4.85 l2.20 0 0 -23 0 -23 -2.25 0 -2.25 0 0 17.75 0 17.75 -2 0 c-1.10 0 -2 -0.20 -2 -0.40 0 -0.25 -0.40 -0.85 -0.90 -1.40 -0.50 -0.50 -1.40 -1.75 -2.10 -2.70 -0.65 -0.95 -1.35 -1.85 -1.50 -2 -0.15 -0.15 -2.40 -3.05 -5 -6.50 -2.60 -3.45 -4.85 -6.35 -5 -6.50 -0.15 -0.15 -0.85 -1.05 -1.50 -2 -0.65 -0.95 -1.35 -1.85 -1.50 -2 -0.20 -0.15 -2.30 -2.90 -4.75 -6.10 l-4.35 -5.90 -2.20 0 -2.20 0 0 23 0 23 2.50 0 2.50 0 0 -17.50z m140 15.50 l0 -2 -12 0 -12 0 0.10 -8.35 0.15 -8.40 9.65 -0.15 9.60 -0.10 0 -2.10 0 -2.05 -9.75 0.25 -9.75 0.30 0 -8.70 0 -8.70 11.50 0 11.50 0 0 -2 0 -2 -14 0 -14 0 0 23 0 23 14.50 0 14.50 0 0 -2z m20.90 -15.50 l-0.15 -17.50 1.85 0 c1.70 0 2 0.25 4.25 3.40 1.30 1.85 2.50 3.45 2.65 3.60 0.20 0.15 3.80 4.85 8 10.50 4.25 5.65 7.85 10.35 8 10.50 0.15 0.15 0.85 1.05 1.50 2 0.70 0.95 1.75 2.30 2.35 3 0.65 0.70 1.15 1.40 1.15 1.60 0 0.25 1 0.40 2.25 0.40 l2.25 0 0 -23 0 -23 -2.25 0 -2.25 0 0 17.75 0 17.75 -1.70 0 c-1.60 0 -2 -0.40 -6.35 -6.10 -2.55 -3.40 -4.80 -6.25 -4.95 -6.40 -0.15 -0.15 -0.85 -1.05 -1.50 -2 -0.70 -0.95 -1.50 -2.10 -1.85 -2.50 -0.35 -0.40 -2.45 -3.10 -4.65 -6 -2.20 -2.90 -4.65 -6 -5.40 -6.95 -0.75 -0.90 -1.55 -2 -1.80 -2.45 -1.30 -2.25 -2.55 -3.10 -4.40 -3.10 l-1.90 0 0 23 0 23 2.55 0 2.55 0 -0.20 -17.50z m59.10 -5.50 l0 -23 -2.50 0 -2.50 0 0 23 0 23 2.50 0 2.50 0 0 -23z m49 21 l0 -2 -12 0 -12 0 0 -8.55 0 -8.60 9.75 0.25 9.75 0.25 0 -2.25 0 -2.20 -9.60 0.15 -9.65 0.20 -0.15 -8.60 -0.10 -8.65 11.25 0 11.25 0 0 -2 0 -2 -13.75 0 -13.75 0 0 23 0 23 14.50 0 14.50 0 0 -2z m21 -7.50 l0 -9.50 5.65 0.05 5.60 0 2.25 3.55 c1.25 1.95 2.50 3.80 2.80 4.10 0.30 0.30 0.85 1.10 1.20 1.80 0.35 0.65 0.85 1.45 1.10 1.70 0.25 0.30 1.55 2.15 2.85 4.05 2.25 3.30 2.55 3.50 4.50 3.65 1.10 0.10 2.05 -0.05 2.05 -0.30 0 -0.25 -1.10 -1.90 -2.40 -3.65 -1.30 -1.75 -3.40 -4.65 -4.65 -6.45 -1.20 -1.80 -2.60 -3.70 -3.05 -4.20 -1.10 -1.20 -1.25 -5.30 -0.25 -5.30 2.35 0 7.15 -4.35 8.65 -7.85 2 -4.65 0.60 -10.20 -3.50 -14 -3.95 -3.65 -6.10 -4.15 -17.95 -4.15 l-9.85 0 0 23 0 23 2.50 0 2.50 0 0 -9.50z m52 -13.50 l0 -23 -2.50 0 -2.50 0 0 23 0 23 2.50 0 2.50 0 0 -23z m21.45 21.40 c0.35 -0.90 1.05 -2.55 1.55 -3.65 0.45 -1.10 1.25 -3.05 1.75 -4.40 l0.90 -2.35 12.25 0.10 c13.20 0.15 12.35 0 13.50 2.90 0.50 1.40 1.20 3.10 1.95 5 0.30 0.70 0.75 1.85 1.10 2.65 0.45 1.20 0.80 1.35 2.80 1.35 l2.25 0 -0.85 -2.10 c-0.45 -1.20 -1 -2.35 -1.25 -2.60 -0.20 -0.30 -0.40 -0.80 -0.40 -1.15 0 -0.40 -0.45 -1.65 -1 -2.75 -0.55 -1.15 -1 -2.25 -1 -2.50 0 -0.25 -0.50 -1.50 -1.05 -2.80 -0.60 -1.30 -1.40 -3.15 -1.80 -4.10 -0.40 -0.95 -1.05 -2.40 -1.45 -3.20 -0.40 -0.80 -0.70 -1.65 -0.70 -1.90 0 -0.20 -0.50 -1.50 -1.05 -2.80 -1.80 -4 -2.35 -5.25 -3.45 -8.10 -1.10 -2.85 -1.65 -4.10 -3.45 -8.10 -0.55 -1.30 -1.05 -2.75 -1.05 -3.15 0 -1.10 -4.95 -0.85 -5.55 0.25 -0.55 1.10 -1.75 3.90 -2.95 7 -1.10 2.85 -1.65 4.10 -3.45 8.10 -0.55 1.30 -1.05 2.50 -1.05 2.65 0 0.15 -0.50 1.35 -1.05 2.65 -2.50 5.55 -2.95 6.60 -2.95 6.80 0 0.35 -5.95 14.45 -6.50 15.40 -1 1.75 -0.60 2.40 1.40 2.40 1.65 0 1.95 -0.20 2.55 -1.60z m-20.20 -56.15 c2.75 -2.65 3.15 -3.25 2.25 -3.25 -1.20 0 -1.55 0.30 -3.80 3.25 -1.80 2.30 -2.35 3.25 -2 3.25 0.10 0 1.75 -1.45 3.55 -3.25z m99.75 -31.75 c1.50 -0.30 4 -0.80 5.50 -1.10 6.55 -1.25 17 -5.60 19.90 -8.25 0.35 -0.35 0.85 -0.65 1.05 -0.65 0.55 0 6.10 -5.45 7.85 -7.75 2.35 -3 5.05 -8.55 6.10 -12.50 1.30 -4.90 1.60 -7.05 1.60 -12.20 0 -5.75 -0.75 -10.35 -2.45 -14.80 -0.80 -2.10 -2.80 -6.05 -3.40 -6.65 -0.35 -0.35 -0.65 -0.85 -0.65 -1.10 0 -0.80 -6.10 -6.55 -9.10 -8.55 -4.90 -3.35 -13.10 -7.10 -18.90 -8.65 -1.50 -0.45 -4.45 -1.25 -6.50 -1.85 -5.50 -1.55 -6.60 -1.85 -8 -2.20 -0.70 -0.20 -1.70 -0.50 -2.25 -0.70 -0.55 -0.25 -3.25 -1.15 -6 -2.05 -9.30 -3.10 -15.20 -7 -17 -11.35 -1.20 -2.85 -1 -11.60 0.30 -14.40 1.95 -4.10 6.45 -7.35 12.95 -9.20 5.70 -1.60 18.85 -2.15 24.60 -1 1.45 0.30 3.90 0.75 5.40 1.05 1.50 0.30 4 0.90 5.50 1.30 1.50 0.40 3.35 0.85 4.15 0.95 0.75 0.15 1.50 0.45 1.65 0.70 0.15 0.25 0.70 0.45 1.25 0.45 0.50 0 1.35 0.20 1.85 0.45 0.45 0.25 1.40 0.65 2.10 0.95 0.70 0.25 2.80 1.20 4.65 2.05 1.85 0.85 3.50 1.55 3.60 1.55 0.15 0 0.25 -4.90 0.25 -10.95 l0 -10.95 -3.60 -1.75 c-2 -1 -4.75 -2.15 -6.15 -2.60 -1.35 -0.45 -2.95 -1 -3.50 -1.20 -1.35 -0.60 -7.80 -2.30 -10.50 -2.80 -20.95 -3.85 -40.35 -1.20 -53.75 7.45 -4.10 2.65 -4.60 3.05 -7.95 6.45 -5.35 5.45 -8 10.45 -9.85 18.60 -1.25 5.75 -0.45 15.80 1.80 21.50 2.95 7.45 8.80 14.25 16 18.45 3.45 2 8.50 4.50 10.75 5.20 1.10 0.35 2.45 0.85 3 1.05 2.50 1 7.75 2.55 8.65 2.55 0.60 0 1.20 0.25 1.35 0.50 0.15 0.30 0.95 0.50 1.75 0.50 0.80 0 1.60 0.25 1.75 0.50 0.15 0.30 0.85 0.50 1.55 0.50 0.65 0 1.60 0.20 2.10 0.45 0.45 0.25 2.55 0.95 4.60 1.60 2.05 0.60 3.95 1.30 4.20 1.55 0.30 0.20 0.90 0.40 1.40 0.40 0.50 0 1.30 0.20 1.80 0.45 0.45 0.25 2.70 1.40 4.95 2.50 4.90 2.40 6.85 4.05 8.45 7.15 1.05 2.10 1.20 3.05 1.20 7.90 0 5.05 -0.15 5.85 -1.35 8.35 -0.75 1.50 -2.15 3.40 -3.15 4.20 -2.10 1.80 -7.50 4.45 -8.90 4.45 -0.60 0 -1.15 0.20 -1.30 0.45 -0.50 0.75 -4.10 1.10 -13.30 1.40 -9.55 0.30 -14.60 -0.25 -23.50 -2.35 -6.70 -1.60 -18.90 -5.70 -20.75 -7 -0.25 -0.20 -0.90 -0.50 -1.35 -0.65 -0.85 -0.30 -0.90 0.45 -0.90 11.15 l0 11.50 2.65 1.20 c2.25 1.05 4.75 1.95 13.65 4.80 0.85 0.30 2 0.50 2.60 0.50 0.55 0 1.15 0.20 1.30 0.45 0.15 0.20 1.25 0.55 2.40 0.75 1.20 0.15 3.50 0.55 5.15 0.85 7.85 1.45 24.65 1.70 30.75 0.45z m-445.10 -26.85 l0.10 -25.65 16.65 0 16.60 0 1.95 3.40 c3.15 5.40 8.45 14.50 11.30 19.35 1.45 2.50 3.20 5.50 3.90 6.75 0.70 1.25 2.20 3.90 3.40 5.85 1.20 2 2.20 3.75 2.20 3.85 0 0.15 1.10 2 2.40 4.15 1.30 2.15 2.80 4.75 3.30 5.80 0.45 1.05 1.15 2 1.45 2.15 0.35 0.10 6.75 0.15 14.20 0.10 l13.60 -0.15 -7.35 -12.25 c-4.10 -6.75 -7.75 -12.80 -8.15 -13.50 -0.35 -0.70 -0.80 -1.35 -0.95 -1.50 -0.25 -0.25 -0.90 -1.35 -2.20 -3.75 -0.30 -0.55 -0.70 -1.10 -0.85 -1.25 -0.15 -0.15 -0.80 -1.25 -1.50 -2.50 -0.65 -1.25 -1.30 -2.35 -1.45 -2.50 -0.15 -0.15 -0.55 -0.80 -0.95 -1.50 -0.40 -0.70 -2.60 -4.35 -4.90 -8.10 -5.05 -8.35 -5.35 -9.85 -2 -10.90 3.15 -1 9.75 -4.35 12.05 -6.15 2.80 -2.15 6.85 -6.25 8.30 -8.35 0.65 -0.95 1.35 -1.85 1.50 -2 0.35 -0.30 3.25 -6.20 3.75 -7.75 1.45 -4.05 2.75 -11.35 2.75 -15.25 0 -4.20 -1.45 -12.65 -2.75 -16.25 -1 -2.70 -3.50 -7.75 -3.85 -7.75 -0.20 0 -0.40 -0.25 -0.40 -0.60 0 -0.80 -3.80 -5.75 -6.05 -8 -6.20 -6 -16.85 -11.05 -26.70 -12.70 -1.10 -0.15 -3.35 -0.55 -5 -0.80 -1.70 -0.30 -17.60 -0.60 -37.10 -0.75 l-34.15 -0.20 0 72.30 0 72.25 13.40 -0.10 13.35 -0.15 0.15 -25.60z m216.60 14.60 l0 -11.25 -35.75 0 -35.75 0 0 -19.75 0 -19.75 31 0 31 0 0 -11 0 -11 -31 0 -31 0 0 -18.25 0 -18.25 35.25 0 35.25 0 0 -12 0 -12 -48.75 0 -48.75 0 0 72.25 0 72.25 49.25 0 49.25 0 0 -11.25z m87 10.70 c12.15 -0.95 19.95 -3.10 29.50 -8.10 5.70 -3 9.80 -6.05 14.75 -11.10 5.85 -5.90 10.75 -13.45 13.85 -21.25 0.30 -0.70 0.70 -1.65 0.95 -2.10 0.25 -0.50 0.45 -1.35 0.45 -1.85 0 -0.55 0.20 -1.10 0.45 -1.25 0.25 -0.15 0.55 -1 0.70 -1.90 0.15 -0.90 0.55 -2.75 0.85 -4.15 1.30 -6.20 1.60 -9.15 1.85 -18.50 0.35 -13.20 -0.55 -20.25 -4 -30.50 -1.70 -5.25 -5.95 -13.50 -8.30 -16.20 -0.60 -0.65 -1.05 -1.40 -1.05 -1.60 0 -0.60 -7.95 -8.50 -10.25 -10.20 -1.10 -0.85 -2.30 -1.80 -2.65 -2.10 -0.35 -0.35 -0.85 -0.65 -1.10 -0.65 -0.25 0 -0.75 -0.30 -1.10 -0.70 -1 -1 -7.60 -4.40 -11.15 -5.75 -1.65 -0.65 -3.45 -1.30 -4 -1.55 -1.80 -0.70 -7.80 -2.20 -11.75 -2.95 -7.25 -1.30 -13.35 -1.55 -41.20 -1.55 l-29.30 0 0 72.25 0 72.25 28.40 -0.05 c15.60 0 30.95 -0.20 34.10 -0.50z m-169.25 -233.35 c31.90 -31.80 80.80 -80.60 108.70 -108.35 27.85 -27.80 95.10 -95.05 149.40 -149.50 l98.70 -98.95 -19.15 -19.15 -19.15 -19.20 -23.50 23.75 c-94.80 95.65 -144.35 145.40 -259.60 260.70 l-131.15 131.20 18.65 18.70 c10.20 10.25 18.70 18.70 18.85 18.70 0.15 0 26.35 -26.05 58.25 -57.90z m349.75 -13.60 l0 -34 -138.35 0 -138.40 0.05 -34.25 33.95 -34.25 33.95 172.65 0.05 172.60 0 0 -34z m-434.25 -75.50 l73 0 33.65 -33.60 c18.45 -18.45 33.60 -33.65 33.60 -33.75 0 -0.10 -48.80 -0.15 -108.50 -0.15 l-108.50 0 0 34.05 0 34.10 1.90 -0.35 c1 -0.15 34.70 -0.30 74.85 -0.30z m434.25 -33.50 l0 -34 -84.10 0 -84.15 0 -33.65 33.65 c-18.50 18.45 -33.75 33.75 -33.95 34 -0.15 0.20 52.80 0.35 117.75 0.35 l118.10 0 0 -34z m-249.60 -78.60 c2.10 -1.95 17.70 -17.35 34.60 -34.25 l30.80 -30.65 -163.40 0 -163.40 0 0 34.25 0 34.25 128.80 0 128.75 0 3.85 -3.60z m249.60 -30.65 l0 -34.25 -29.65 0 -29.70 0 -5.20 5.80 c-2.85 3.20 -18.15 18.60 -33.95 34.25 l-28.75 28.45 63.65 0 63.60 0 0 -34.25z m-109.40 -109.75 l34.10 -34 -217.85 0 -217.85 0 0 34 0 34 183.80 0 183.75 0 34.05 -34z"/>
  <path d="M311.35 899.50 c-3 -1.15 -6.45 -4.55 -7.95 -7.80 -0.95 -2.10 -1.10 -3.30 -1.10 -8.95 -0.05 -5.85 0.10 -6.70 1.10 -8.65 3.05 -5.80 8.10 -8.60 15.35 -8.60 7.05 0 11.95 2.95 14.50 8.75 1.10 2.45 1.25 3.50 1.25 8.65 0 3.35 -0.30 6.60 -0.65 7.60 -1.35 4 -4.80 7.70 -8.40 9.05 -3.40 1.30 -10.75 1.25 -14.10 -0.05z"/>
  <path d="M687.85 899 c-5.85 -2.90 -8.35 -7.65 -8.35 -16 0 -11.50 5.80 -17.50 16.85 -17.50 3.70 0 4.65 0.20 7.45 1.50 3.10 1.50 5.75 4.10 7.05 7 2.40 5.30 2.20 14.20 -0.35 19 -1.25 2.30 -4.30 5.10 -6.85 6.25 -2.30 1.10 -3.40 1.25 -7.80 1.25 -4.60 -0.05 -5.40 -0.15 -8 -1.50z"/>
  <path d="M480.50 875 l0 -8.50 7.75 0 c7.20 0 7.90 0.10 9.50 1.15 2.30 1.50 2.75 2.70 2.75 7.40 0 3.35 -0.20 4.30 -1.05 5.55 -1.75 2.45 -3.55 2.90 -11.70 2.90 l-7.25 0 0 -8.50z"/>
  <path d="M731.25 829.45 c-1.10 -0.50 -2.60 -1.70 -3.35 -2.60 -1.30 -1.50 -1.35 -1.95 -1.40 -6.25 0 -4.40 0.40 -6.10 1.70 -7.35 1.55 -1.55 3.25 -2.25 5.20 -2.25 2.10 0 2.30 0.15 8.65 6.55 6.40 6.45 6.50 6.60 6.35 8.60 -0.15 1.85 -0.35 2.15 -2.40 3.15 -3.10 1.60 -11.65 1.70 -14.75 0.15z"/>
  <path d="M732.35 804.40 c-1.90 -2.35 -2.85 -4.75 -2.85 -7.05 0 -2.55 1.10 -5.35 2.65 -6.65 1.25 -1.05 1.90 -1.20 5.35 -1.20 3.70 0 4 0.10 5.45 1.55 1.45 1.45 1.55 1.75 1.55 5.25 0 3.90 -0.65 5.85 -2.35 7.20 -3.05 2.40 -4.25 3 -6.10 3 -1.75 0 -2.20 -0.25 -3.70 -2.10z"/>
  <path d="M575.50 801 l0 -9.50 7.65 0 c8.70 0 10.85 0.55 12.95 3.05 1.30 1.55 1.40 1.95 1.40 6.40 0 4.25 -0.10 4.85 -1.25 6.35 -2.20 2.85 -3.45 3.20 -12.60 3.20 l-8.15 0 0 -9.50z"/>
  <path d="M655.50 817.15 c0 -1.15 4.20 -12.55 6.75 -18.40 0.40 -0.85 0.90 -2.15 1.20 -2.90 0.45 -1.10 0.85 -1.35 2.30 -1.35 1.20 0 1.75 0.25 1.75 0.75 0 0.40 0.50 1.80 1.05 3.10 0.60 1.35 1.25 2.85 1.50 3.40 0.20 0.55 1.40 3.65 2.65 6.90 1.35 3.45 2.30 6.65 2.30 7.85 l0 2 -9.75 0 -9.75 0 0 -1.35z"/>
  <path d="M283.50 646 l0 -23.55 21.15 0.20 c19.25 0.20 24.75 0.50 27.60 1.55 4.50 1.70 5.80 2.45 8.05 4.55 4 3.85 5.20 7.45 5.20 15.95 0 6.60 -0.30 8.30 -2.20 12.25 -2.25 4.80 -8.75 9.60 -14.55 10.80 -7.35 1.50 -10.80 1.70 -27.60 1.75 l-17.65 0 0 -23.50z"/>
  <path d="M551.50 671.30 l0 -48.80 17.60 0 c16.25 0 20.50 0.25 25.15 1.45 3.70 1 6.05 1.75 6.50 2.15 0.25 0.20 0.75 0.40 1.05 0.40 1.50 0 7.25 3.95 10.45 7.20 4.10 4.20 6.90 9.35 8.65 16.05 1.70 6.45 1.85 8.35 1.85 21 0 12.65 -0.15 14.20 -1.85 20.50 -1.25 4.65 -4.30 11.50 -6.15 13.60 -0.25 0.35 -1.15 1.50 -2 2.55 -0.80 1.05 -2.30 2.55 -3.35 3.35 -1.05 0.85 -2.20 1.75 -2.55 2.05 -1.15 1.05 -5.90 3.25 -9.05 4.25 -7.30 2.35 -9.35 2.55 -28.15 2.80 l-18.15 0.25 0 -48.80z"/>
 </g>
 <g fill="#dc1c22">
  <path d="M421.75 530.60 l-3.50 -0.15 35.50 -35.20 35.50 -35.20 139.75 -0.05 139.75 0 -0.15 35.10 c-0.10 26.45 -0.30 35.20 -0.75 35.50 -0.60 0.35 -339.05 0.40 -346.10 0z"/>
  <path d="M255 386.55 l0 -35.55 110.25 0 110.25 0 0 1.40 c0 1.15 -5.45 6.80 -33.75 35.10 l-33.75 33.75 -73.10 0 c-40.25 0.05 -74.65 0.25 -76.50 0.45 l-3.40 0.40 0 -35.55z"/>
  <path d="M532.50 421.50 c0 -0.25 -0.80 -0.50 -1.80 -0.50 -1.35 0 -1.75 -0.20 -1.60 -0.80 0.10 -0.45 15.55 -16.20 34.40 -35 l34.25 -34.20 85.40 0 85.35 0 0 34.65 c0 34.05 0 34.65 -1 35.50 -0.95 0.80 -8 0.85 -118 0.85 -77.65 0 -117 -0.15 -117 -0.50z"/>
  <path d="M254.95 312.80 c-0.10 -0.10 -0.15 -16.20 -0.05 -35.75 l0.10 -35.55 165 0 c142 0 165 0.10 165 0.70 0 0.40 0.25 0.80 0.50 0.90 0.45 0.15 -56.60 57.45 -65.55 65.80 l-3.25 3.10 -130.10 0 c-83.45 0.05 -130.10 0.20 -130.10 0.50 0 0.50 -1.15 0.70 -1.55 0.30z"/>
  <path d="M666.50 282.55 c16.35 -16.20 32.10 -32.05 34.95 -35.25 l5.20 -5.80 30.95 0.10 30.95 0.15 0 35 0 35 -65.90 0.10 -65.90 0.15 29.75 -29.45z"/>
  <path d="M607.50 202.45 c0 -0.40 -48.70 -0.50 -176.35 -0.35 l-176.40 0.25 0.15 -35.20 0.10 -35.15 220 0 c205.65 0 220 0.05 220 0.85 0 0.90 -68.10 69.15 -69 69.15 -0.25 0 -0.50 0.25 -0.50 0.50 0 0.30 -2 0.50 -5 0.50 -3 0 -5 -0.20 -5 -0.50 0 -0.25 -0.55 -0.50 -1.25 -0.50 -0.70 0 -1.25 0.25 -1.25 0.50 0 0.30 -1.25 0.50 -2.75 0.50 -1.65 0 -2.75 -0.20 -2.75 -0.55z"/>
 </g>
 <g fill="#000000">
  <path d="M271.25 905.30 c-6.35 -1.15 -10.75 -3.85 -14.05 -8.65 -3.45 -5 -4.20 -7.50 -4.20 -13.65 0 -7.05 1.60 -11.10 6.25 -15.75 2.80 -2.80 5.05 -4.20 9.15 -5.75 2.15 -0.85 11.30 -0.80 14.15 0.05 1.20 0.35 3.10 1.15 4.20 1.75 l2 1.10 0.15 3.80 c0.10 2.10 0 3.80 -0.15 3.80 -0.15 0 -0.75 -0.45 -1.35 -1 -0.60 -0.55 -1.40 -1 -1.75 -1 -0.35 0 -0.65 -0.20 -0.65 -0.50 0 -0.25 -0.40 -0.50 -0.90 -0.50 -0.50 0 -1.10 -0.15 -1.30 -0.35 -0.85 -0.85 -4.35 -1.65 -7.40 -1.65 -8.75 0 -15.40 6.90 -15.40 16 0 4.85 2.05 9.70 5.25 12.25 3.75 3.05 5.75 3.75 10.70 3.75 2.50 0 5.15 -0.25 5.90 -0.55 2.85 -1.15 3.95 -1.70 5.25 -2.55 0.70 -0.50 1.45 -0.90 1.60 -0.90 0.15 0 0.30 1.55 0.30 3.40 l0 3.45 -2.35 1.15 c-4.15 1.95 -3.70 1.85 -10.40 2.70 -0.80 0.15 -3.05 -0.05 -5 -0.40z"/>
  <path d="M314.75 905.25 c-4.50 -0.95 -6.10 -1.55 -8.80 -3.30 -2.70 -1.70 -6.95 -6.15 -6.95 -7.25 0 -0.40 -0.20 -0.70 -0.40 -0.70 -0.20 0 -0.80 -1.40 -1.35 -3.10 -1.10 -3.50 -1.35 -11.35 -0.40 -14.40 2 -6.80 6.70 -12.10 12.40 -14.05 1.10 -0.35 2.25 -0.85 2.60 -1.10 0.30 -0.25 3.20 -0.40 6.40 -0.40 4.90 0 6.30 0.15 8.70 1.10 6.90 2.75 11.45 7.95 13.35 15.30 3.25 12.55 -5.65 26.50 -17.80 27.90 -1.50 0.15 -3.20 0.40 -3.75 0.45 -0.55 0.10 -2.35 -0.10 -4 -0.45z m9.20 -7.20 c3.60 -1.35 7.05 -5.05 8.40 -9.05 0.35 -0.95 0.65 -3.70 0.65 -6.10 0 -3.55 -0.25 -4.90 -1.25 -7.15 -5.05 -11.50 -20.85 -11.55 -26.80 -0.15 -1.65 3.10 -1.65 11 0 14.60 1.40 3.20 4.90 6.65 7.90 7.80 3.15 1.25 7.90 1.25 11.10 0.05z"/>
  <path d="M582.50 905.45 c-1.80 -0.25 -3.70 -0.65 -4.25 -0.90 -0.55 -0.25 -1.75 -0.75 -2.60 -1.15 -0.90 -0.35 -1.65 -0.80 -1.65 -1 0 -0.25 -0.30 -0.40 -0.65 -0.40 -0.80 0 -4.70 -3.65 -6.10 -5.75 -3.25 -4.85 -4.75 -11.45 -3.75 -16.90 0.35 -2 0.85 -3.80 1.10 -4.05 0.20 -0.30 0.40 -0.90 0.40 -1.40 0 -0.50 0.25 -0.90 0.50 -0.90 0.30 0 0.50 -0.35 0.50 -0.75 0 -1.55 5.50 -7.25 8.45 -8.70 4.05 -2.10 6.15 -2.55 12.15 -2.55 3.35 0 5.95 0.20 6.15 0.50 0.15 0.30 0.75 0.50 1.30 0.50 0.95 0 1.45 0.20 4.20 1.65 1.45 0.75 1.50 0.95 1.65 4.55 0.10 2.10 0.05 3.80 -0.10 3.80 -0.15 0 -1.10 -0.60 -2.15 -1.30 -7.75 -5.25 -16.60 -4.90 -22.60 0.80 -2.75 2.70 -4.20 6.50 -4.20 11.50 0 3.85 0.15 4.60 1.60 7.50 1.95 3.80 3.80 5.60 7.40 7.25 4.95 2.30 13.10 1.50 17.60 -1.70 2.35 -1.70 2.60 -1.40 2.45 2.30 l-0.15 3.35 -3 1.60 c-2.05 1.05 -4.05 1.70 -6.25 1.90 -1.80 0.20 -3.60 0.45 -4 0.50 -0.40 0.10 -2.20 -0.05 -4 -0.25z"/>
  <path d="M626.75 905.30 c-6.85 -1.35 -11.50 -4.25 -14.90 -9.45 -7.35 -11.05 -3.95 -26.10 7.30 -32.25 1.60 -0.90 3.35 -1.60 3.85 -1.60 0.50 0 1.10 -0.20 1.25 -0.50 0.20 -0.30 2.85 -0.50 6.35 -0.50 4.95 0 6.65 0.20 9.10 1.05 1.70 0.60 3.15 1.25 3.30 1.45 0.15 0.15 0.65 0.45 1.15 0.65 0.70 0.25 0.85 0.95 0.85 4.10 0 2.05 -0.10 3.75 -0.20 3.75 -0.15 0 -1.20 -0.65 -2.40 -1.45 -9.50 -6.30 -21.10 -3.85 -25.55 5.45 -0.90 1.85 -1.10 3.10 -1.05 7.25 0 5.80 0.90 8.05 4.40 11.45 3.20 3.05 6.50 4.30 11.55 4.30 2.30 0 4.85 -0.25 5.60 -0.55 2.85 -1.15 3.95 -1.70 5.25 -2.55 2.10 -1.45 2.40 -1.15 2.40 2.30 0 3.10 -0.05 3.25 -1.60 4.20 -0.90 0.60 -2.65 1.35 -3.90 1.75 -2.20 0.75 -8.35 1.90 -9.30 1.80 -0.25 -0.05 -1.80 -0.35 -3.45 -0.65z"/>
  <path d="M691.75 905.30 c-3.40 -0.70 -6.05 -1.85 -9.20 -3.95 -3.15 -2.15 -4.75 -4.10 -6.90 -8.35 -1.90 -3.75 -1.90 -3.75 -1.85 -10 0 -6.10 0.05 -6.35 1.70 -9.75 2.85 -5.80 6.45 -9.05 12.60 -11.30 2 -0.75 3.95 -0.95 8.25 -0.95 3.15 0 6.05 0.20 6.55 0.45 0.45 0.25 2.05 0.95 3.50 1.60 4.90 2.15 8.80 6.70 10.95 12.80 1.05 3.10 1.15 11.05 0.15 14.15 -2.15 6.80 -7.65 12.55 -13.75 14.40 -1.85 0.55 -8.15 1.65 -8.75 1.55 -0.15 -0.05 -1.60 -0.35 -3.25 -0.65z m10.40 -7.55 c2.55 -1.15 5.60 -3.95 6.85 -6.25 4.50 -8.40 1.35 -19.15 -6.70 -23 -10.25 -4.90 -21.30 2.65 -21.30 14.50 0 6.75 2.90 11.85 8.35 14.50 3.95 2 8.85 2.10 12.80 0.25z"/>
  <path d="M405.95 905.05 c-2 -0.40 -7.45 -2.95 -7.50 -3.45 -0.40 -4.20 -0.30 -6.60 0.25 -6.60 0.40 0 0.95 0.35 1.30 0.75 1.40 1.70 5.15 2.95 9.40 3.15 4.90 0.25 6.05 0 8.05 -1.70 1.35 -1.15 1.55 -1.60 1.55 -3.95 0 -2.35 -0.15 -2.80 -1.65 -4.05 -0.90 -0.80 -3.65 -2.35 -6.10 -3.40 -9.85 -4.30 -12.25 -6.95 -12.25 -13.30 0 -5.30 1.85 -8.15 6.90 -10.50 1.70 -0.85 3.20 -1.05 7.30 -1.05 4.50 0 5.50 0.15 8 1.30 l2.80 1.30 0 3.20 c0 1.80 -0.15 3.25 -0.35 3.25 -0.25 0 -1.75 -0.70 -3.40 -1.50 -2.50 -1.25 -3.60 -1.50 -6.80 -1.50 -3.15 0 -4.10 0.20 -5.50 1.15 -1.50 1 -1.70 1.45 -1.85 3.55 -0.10 1.75 0.10 2.65 0.75 3.40 0.50 0.60 4.10 2.60 8 4.50 7.85 3.85 10.20 5.85 11.20 9.50 0.80 3.10 0.30 7.50 -1.20 10.05 -1.25 2.10 -4.65 4.85 -6 4.85 -0.35 0 -0.90 0.25 -1.20 0.55 -0.65 0.65 -9.25 1.05 -11.70 0.50z"/>
  <path d="M530 905.05 c-4.45 -0.95 -8.95 -4.45 -11.05 -8.55 -1.10 -2.20 -1.15 -2.70 -1.35 -18.60 l-0.20 -16.40 3.55 0 3.50 0 0.15 15.15 0.15 15.20 1.50 2.40 c1.95 3.15 4.90 4.70 8.85 4.75 5.30 0 8.95 -2.55 10.30 -7.30 0.40 -1.35 0.60 -6.90 0.60 -16.15 l0 -14.05 3.50 0 3.50 0 0 15.15 c0 11.85 -0.15 15.60 -0.75 17.55 -1.40 4.60 -3.75 7.35 -8.25 9.60 -2.30 1.15 -3.45 1.40 -7.50 1.50 -2.60 0.10 -5.55 -0.05 -6.50 -0.25z"/>
  <path d="M351.40 883.40 l0.10 -21.65 2.90 -0.15 2.85 -0.15 3.50 4.65 c1.90 2.55 3.60 4.75 3.75 4.90 0.15 0.15 3.95 5.15 8.45 11.15 4.50 5.95 8.35 10.85 8.50 10.85 0.15 0 0.30 -7.05 0.30 -15.60 l0 -15.65 3.15 -0.15 3.10 -0.15 0 21.80 0 21.80 -3.10 -0.15 -3.15 -0.15 -10.85 -14.50 c-6 -7.95 -11.35 -15.05 -11.90 -15.75 l-1 -1.25 0 15.90 0 15.85 -3.35 0 -3.40 0 0.15 -21.60z"/>
  <path d="M445 886.50 l0 -18.50 -7 0 -7 0 0 -3.25 0 -3.25 17.85 0.10 17.85 0.15 0 3 0 3 -7.10 0.15 -7.10 0.15 0 18.45 0 18.50 -3.75 0 -3.75 0 0 -18.50z"/>
  <path d="M475.35 883.40 l0.15 -21.65 10.60 0.05 c11.85 0 12.70 0.20 15.90 3.35 2.40 2.35 3 3.20 3 4.05 0 0.40 0.25 0.90 0.50 1.05 0.30 0.15 0.50 2.10 0.50 4.30 0 3 -0.25 4.50 -1.05 6.20 -1.20 2.60 -4.55 5.70 -6.55 6.10 -0.75 0.15 -1.40 0.40 -1.40 0.55 0 0.10 0.75 1.25 1.65 2.55 0.90 1.25 2.55 3.55 3.60 5.05 1.05 1.50 2.25 3.05 2.60 3.40 0.35 0.35 0.65 0.85 0.65 1 0 0.20 0.60 1.05 1.35 1.85 0.70 0.85 1.75 2 2.30 2.65 l1 1.10 -4.55 0 -4.55 0 -1.65 -2.35 c-0.85 -1.35 -1.90 -2.70 -2.25 -3.05 -0.35 -0.35 -0.65 -0.85 -0.65 -1.05 0 -0.20 -0.45 -0.90 -0.95 -1.50 -0.50 -0.60 -2.10 -2.85 -3.55 -5.05 l-2.65 -4 -3.65 0 -3.70 0 0 8.50 0 8.50 -3.35 0 -3.40 0 0.10 -21.60z m19.85 -2.10 c2.45 -1.05 3.80 -3.20 3.80 -6.25 0 -3.20 -0.60 -4.50 -2.75 -5.90 -1.55 -1.05 -2.35 -1.15 -8 -1.15 l-6.25 0 0 7 0 7 5.75 0 c3.80 0 6.35 -0.25 7.45 -0.70z"/>
  <path d="M656 904.75 c0 -0.15 0 -9.85 0 -21.60 l-0.05 -21.40 3.55 -0.15 3.50 -0.15 0 21.80 0 21.75 -3.50 0 c-1.90 0 -3.50 -0.10 -3.50 -0.25z"/>
  <path d="M729 883.25 l0 -21.75 3.15 0 3.15 0 3.45 4.65 c1.90 2.50 3.75 4.90 4.10 5.25 0.35 0.35 0.65 0.85 0.65 1 0 0.20 0.50 0.90 1.15 1.60 0.60 0.70 1.65 2.05 2.35 3 0.65 0.95 1.35 1.85 1.50 2 0.15 0.15 1.45 1.85 2.90 3.75 1.40 1.95 3.05 4.05 3.60 4.75 0.55 0.70 1.65 2.20 2.40 3.35 0.75 1.15 1.45 2.10 1.60 2.15 0.15 0 0.20 -7.10 0.10 -15.75 l-0.15 -15.75 3.55 0 3.50 0 0 21.75 0 21.75 -3.20 0 c-3.05 0 -3.30 -0.10 -4.15 -1.50 -0.45 -0.80 -1.05 -1.50 -1.20 -1.50 -0.20 0 -0.50 -0.40 -0.65 -0.85 -0.15 -0.50 -0.80 -1.45 -1.45 -2.15 -0.60 -0.70 -1.65 -2.05 -2.35 -3 -0.65 -0.95 -1.35 -1.85 -1.50 -2 -0.15 -0.15 -0.85 -1.05 -1.50 -2 -0.65 -0.95 -1.35 -1.85 -1.50 -2 -0.15 -0.15 -0.85 -1.05 -1.50 -2 -0.65 -0.95 -1.35 -1.85 -1.50 -2 -0.15 -0.15 -0.85 -1.05 -1.50 -2 -0.65 -0.95 -1.45 -2 -1.75 -2.30 -0.25 -0.30 -1.75 -2.30 -3.25 -4.40 l-2.75 -3.85 -0.15 15.75 -0.10 15.80 -3.50 0 -3.50 0 0 -21.75z"/>
  <path d="M694 856.55 c0 -0.25 0.30 -0.55 0.65 -0.70 0.30 -0.10 1.70 -1.90 3.10 -3.90 1.35 -2.05 2.65 -3.80 2.85 -4 0.30 -0.20 3.30 -0.20 7.65 0.05 0.30 0 -1.60 2.05 -4.20 4.50 l-4.65 4.50 -2.70 0 c-1.50 0 -2.70 -0.20 -2.70 -0.45z"/>
  <path d="M354.75 835.35 c-5.95 -1.45 -11.95 -5.50 -14.95 -10.05 -1.55 -2.30 -2.10 -3.40 -3.30 -6.55 -0.65 -1.75 -1.50 -6.25 -1.50 -8.15 0 -6.50 3.40 -14.50 7.95 -18.70 5.20 -4.85 10.90 -6.90 19.05 -6.90 6.50 0 11.55 1.35 15.65 4.10 1.30 0.95 1.35 1.15 1.35 5.20 l0 4.20 -1.35 -0.85 c-0.80 -0.50 -1.50 -1 -1.65 -1.15 -0.65 -0.70 -6.50 -3.45 -8.60 -4 -3.75 -1 -9.60 -0.45 -13.30 1.20 -3.20 1.45 -8.10 6.05 -8.10 7.60 0 0.40 -0.20 0.70 -0.40 0.70 -0.80 0 -1.80 4.85 -1.75 8.60 0.05 8.65 4.95 15.10 13.60 17.85 2.70 0.85 7.50 0.60 11.05 -0.65 l3.25 -1.10 0 -5.20 0 -5.15 -6.35 0.10 -6.40 0.10 0 -3.75 0 -3.80 10.50 0 10.50 0 0 10.50 0 10.45 -2.10 1.45 c-3.15 2.10 -5.65 3.15 -9.35 3.90 -3.75 0.80 -10.80 0.80 -13.80 0.05z"/>
  <path d="M730.95 834.85 c-7.60 -3 -10.95 -7.45 -10.95 -14.70 0 -5.20 1.80 -8.40 6.30 -11.20 0.95 -0.55 1.70 -1.15 1.70 -1.30 0 -0.15 -0.45 -0.90 -1 -1.65 -5 -7 -3.60 -16.45 2.85 -19.45 0.75 -0.35 1.80 -0.85 2.25 -1.10 0.50 -0.25 2.80 -0.45 5.15 -0.45 3.30 0 4.75 0.25 6.50 1.05 2.90 1.35 5.55 4.35 6.30 7.05 0.60 2.30 0.30 6.80 -0.60 8.60 -0.90 1.65 -4.95 5.35 -6.80 6.10 -0.90 0.40 -1.65 0.95 -1.65 1.20 0 0.85 9.55 10.10 10.20 9.85 0.30 -0.15 0.85 -1.65 1.25 -3.40 1.25 -6.05 0.90 -5.70 5 -5.85 l3.65 -0.15 -0.25 1.65 c-0.30 2 -1.70 7.25 -2.30 8.65 -1.65 3.70 -2.05 4.70 -2.05 4.95 0 0.15 2.15 2.40 4.75 5.05 2.60 2.60 4.75 4.85 4.75 5 0 0.15 -2.25 0.25 -4.95 0.25 l-5 0 -2.15 -2.30 -2.20 -2.30 -1.95 1.80 c-1.05 1 -2.30 1.80 -2.75 1.80 -0.45 0 -1 0.20 -1.25 0.40 -2.10 1.85 -10.55 2.05 -14.80 0.45z m13.50 -7 c1.25 -0.65 2.30 -1.40 2.40 -1.70 0.25 -0.65 -12.55 -13.65 -13.45 -13.65 -0.65 0 -2.60 1.20 -3.70 2.25 -1.20 1.20 -1.70 2.85 -1.70 5.85 0 2.70 0.25 3.40 1.40 4.75 2.15 2.60 4.75 3.60 9.10 3.60 2.90 0 4.25 -0.25 5.95 -1.10z m-6.35 -23.95 c4.10 -2.95 4.90 -4.20 4.90 -7.60 0 -1.80 -0.30 -2.50 -1.55 -3.75 -2.05 -2.05 -5.60 -2.20 -7.80 -0.35 -1.95 1.65 -2.85 4.60 -2.10 6.85 0.65 1.85 3.75 5.95 4.50 5.95 0.25 0 1.20 -0.50 2.05 -1.10z"/>
  <path d="M282.65 835.10 l-3.65 -0.15 0 -24.45 0 -24.50 3.70 0 3.70 0 4.35 5.90 c2.45 3.20 4.55 5.95 4.75 6.10 0.15 0.15 0.85 1.05 1.50 2 0.65 0.95 1.35 1.85 1.50 2 0.15 0.15 2.40 3.05 5 6.50 2.60 3.45 4.85 6.35 5 6.50 0.15 0.15 0.85 1.05 1.50 2 0.70 0.95 1.60 2.20 2.10 2.70 0.50 0.55 0.90 1.15 0.90 1.40 0 0.20 0.25 0.40 0.50 0.40 0.30 0 0.50 -6.25 0.50 -17.75 l0 -17.75 3.90 0 3.85 0 0 24.50 0 24.50 -3.80 0 -3.80 0 -3.70 -4.85 c-2 -2.70 -3.80 -5 -3.95 -5.15 -0.15 -0.15 -0.85 -1.05 -1.50 -2 -0.65 -0.95 -1.35 -1.85 -1.50 -2 -0.15 -0.15 -3.10 -3.95 -6.50 -8.50 -3.40 -4.55 -6.30 -8.35 -6.45 -8.50 -0.20 -0.15 -0.85 -1.10 -1.55 -2.10 -0.70 -1.05 -1.40 -1.90 -1.60 -1.90 -0.25 0 -0.40 7.85 -0.40 17.45 0 9.65 -0.15 17.55 -0.35 17.65 -0.25 0.10 -2.05 0.10 -4 0z"/>
  <path d="M410.65 835.10 l-15.65 -0.10 0 -24.50 0 -24.50 15.50 0 15.50 0 0 3.50 0 3.50 -11.50 0 -11.50 0 0 7.15 0 7.10 9.70 -0.15 9.70 -0.20 0.20 3.45 c0.10 1.85 0.15 3.50 0.10 3.55 -0.10 0.10 -4.45 0.25 -9.80 0.25 l-9.65 0.10 -0.15 6.90 -0.15 6.85 12.05 0 12 0 0 3.45 c0 1.95 -0.15 3.55 -0.35 3.65 -0.25 0.10 -7.45 0.10 -16 0z"/>
  <path d="M499.20 835.05 c-0.10 -0.10 -0.20 -11.20 -0.20 -24.65 l0 -24.40 4 0 4 0 0 24.65 0 24.60 -3.80 0 c-2.05 0 -3.85 -0.10 -4 -0.20z"/>
  <path d="M569.20 835.05 c-0.10 -0.10 -0.20 -11.20 -0.20 -24.65 l0 -24.40 11.35 0 c13.50 0 15.40 0.40 19.45 4.15 3.35 3.10 4.45 5.75 4.40 10.80 0 2.90 -0.30 4.90 -0.90 6.20 -1.55 3.50 -6.35 7.85 -8.65 7.85 -0.90 0 -0.80 1.15 0.25 2.30 0.45 0.50 1.85 2.40 3.05 4.20 3.90 5.70 6.95 9.70 8.50 11.30 0.85 0.80 1.55 1.70 1.55 2 0 0.50 -9.10 0.50 -9.90 0 -0.25 -0.15 -1.55 -1.90 -2.90 -3.90 -1.35 -2 -2.75 -3.95 -3.05 -4.30 -0.35 -0.35 -0.65 -0.85 -0.65 -1.05 0 -0.20 -0.40 -0.85 -0.85 -1.40 -0.50 -0.60 -1.90 -2.65 -3.15 -4.55 l-2.25 -3.55 -4.10 0 -4.15 -0.05 -0.10 9.55 -0.15 9.55 -3.65 0.05 c-2.05 0.05 -3.80 0 -3.90 -0.10z m22.75 -26.85 c0.85 -0.40 2.10 -1.50 2.80 -2.40 1.05 -1.35 1.25 -2.20 1.25 -4.85 0 -2.80 -0.20 -3.45 -1.40 -4.90 -2 -2.40 -4.35 -3.05 -11.45 -3.05 l-6.15 0 0 8 0 8 6.65 0 c5.10 0 7.05 -0.20 8.30 -0.80z"/>
  <path d="M621.20 835.05 c-0.10 -0.10 -0.20 -11.20 -0.20 -24.65 l0 -24.40 4 0 4 0 -0.10 24.55 -0.15 24.55 -3.65 0.05 c-2.05 0.05 -3.80 0 -3.90 -0.10z"/>
  <path d="M641.50 835.05 c0 -0.25 0.35 -1.35 0.80 -2.40 0.45 -1.05 1.05 -2.35 1.25 -2.90 0.25 -0.55 1.80 -4.20 3.45 -8.15 1.65 -3.95 3 -7.25 3 -7.40 0 -0.20 0.45 -1.25 2.95 -6.80 0.55 -1.30 1.05 -2.50 1.05 -2.65 0 -0.15 0.50 -1.35 1.05 -2.65 1.80 -4 2.35 -5.25 3.45 -8.10 1.20 -3.10 2.40 -5.90 2.95 -7 0.60 -1.10 8.55 -1.35 8.55 -0.25 0 0.40 0.50 1.85 1.05 3.15 1.80 4 2.35 5.25 3.45 8.10 1.10 2.85 1.65 4.10 3.45 8.10 0.55 1.30 1.05 2.60 1.05 2.80 0 0.25 0.30 1.10 0.70 1.90 0.40 0.80 1.05 2.25 1.45 3.20 0.40 0.95 1.20 2.80 1.80 4.10 0.55 1.30 1.05 2.55 1.05 2.80 0 0.25 0.45 1.35 1 2.50 0.55 1.10 1 2.30 1 2.60 0 0.25 0.20 0.90 0.50 1.40 1.05 1.90 2.50 5.30 2.50 5.90 0 0.35 0.30 0.70 0.65 0.85 1.60 0.60 -0.80 1.10 -4.55 0.95 -3.95 -0.15 -4.20 -0.25 -4.70 -1.50 -0.30 -0.75 -0.75 -1.90 -1.05 -2.60 -0.25 -0.70 -0.65 -1.70 -0.85 -2.25 -0.50 -1.35 -1.55 -3.85 -2 -4.75 -0.30 -0.65 -2.15 -0.75 -11.10 -0.90 l-10.75 -0.10 -0.90 2.35 c-0.50 1.35 -1.30 3.30 -1.75 4.40 -0.50 1.10 -1.20 2.75 -1.55 3.65 -0.70 1.60 -0.75 1.60 -4.05 1.60 -1.80 0 -3.65 0.15 -4.10 0.30 -0.45 0.15 -0.80 0.05 -0.80 -0.25z m32 -18.55 c0 -0.25 -1.05 -3.15 -2.30 -6.35 -1.25 -3.25 -2.45 -6.35 -2.70 -6.90 -0.20 -0.55 -0.85 -2.10 -1.40 -3.50 -0.55 -1.35 -1.15 -2.85 -1.25 -3.25 -0.15 -0.50 -0.45 -0.25 -0.80 0.75 -0.35 0.80 -0.90 2.15 -1.30 3 -0.35 0.80 -2 4.95 -3.65 9.15 l-3 7.60 8.20 0 c5.10 0 8.20 -0.20 8.20 -0.50z"/>
  <path d="M254 810.50 l0 -24.55 4 0.15 4.05 0.15 0.10 24.40 0.10 24.35 -4.10 0 -4.15 0 0 -24.50z"/>
  <path d="M440 834.75 c0 -0.15 0 -11.10 0 -24.35 l0 -24.15 3.35 -0.15 c3.45 -0.15 4.40 0.30 5.95 2.95 0.25 0.45 1.05 1.60 1.80 2.50 0.75 0.95 3.20 4.05 5.40 6.95 2.20 2.90 4.30 5.60 4.65 6 0.35 0.40 1.15 1.55 1.85 2.50 0.65 0.95 1.35 1.85 1.50 2 0.15 0.15 2.45 3.05 5.05 6.50 l4.70 6.20 0.15 -6.45 c0.05 -3.60 0.05 -11.65 0 -17.90 l-0.15 -11.40 3.90 0.15 3.85 0.15 0 24.25 0 24.25 -3.75 0.15 c-2.05 0.10 -3.75 -0.05 -3.75 -0.25 0 -0.25 -0.50 -0.95 -1.15 -1.65 -0.60 -0.70 -1.65 -2.05 -2.35 -3 -0.65 -0.95 -1.35 -1.85 -1.50 -2 -0.15 -0.15 -3.75 -4.85 -8 -10.50 -4.20 -5.65 -7.80 -10.35 -8 -10.50 -0.15 -0.15 -1.35 -1.75 -2.65 -3.60 -1.35 -1.90 -2.55 -3.40 -2.75 -3.40 -0.20 0 -0.30 7.85 -0.20 17.50 l0.15 17.50 -4.05 0 c-2.20 0 -4 -0.10 -4 -0.25z"/>
  <path d="M524 810.50 l0 -24.50 15.20 0 15.20 0 0.20 3.30 c0.05 1.80 0.05 3.40 -0.05 3.50 -0.10 0.10 -5.25 0.20 -11.40 0.20 l-11.20 0 0.15 7.05 0.15 7.05 9.65 -0.10 9.60 -0.05 0 3.80 0 3.75 -9.75 -0.20 -9.75 -0.25 0 7 0 6.95 12 0 12 0 0 3.50 0 3.50 -16 0 -16 0 0 -24.50z"/>
  <path d="M621 780.70 c0 -0.40 0.15 -0.70 0.40 -0.70 0.20 0 1.30 -1.40 2.45 -3.15 4.05 -6 3.95 -5.90 8.75 -5.75 l4.15 0.15 -1.95 1.75 c-1.10 0.95 -3.10 2.90 -4.50 4.25 -3.85 3.75 -4.15 3.90 -6.85 4.05 -1.80 0.05 -2.45 -0.10 -2.45 -0.60z"/>
  <path d="M703.50 746 c-2.35 -0.20 -5.60 -0.65 -7.25 -0.95 -1.65 -0.30 -3.95 -0.70 -5.15 -0.85 -1.15 -0.20 -2.25 -0.55 -2.40 -0.75 -0.15 -0.25 -0.75 -0.45 -1.30 -0.45 -0.60 0 -1.75 -0.20 -2.60 -0.50 -8.90 -2.85 -11.40 -3.75 -13.65 -4.80 l-2.65 -1.20 0 -13.80 c0 -7.55 0.15 -13.70 0.40 -13.60 8.35 4.15 11.85 5.50 20.10 7.90 11.25 3.25 18.05 4.20 27.50 3.85 7.90 -0.30 11.35 -0.70 11.80 -1.40 0.15 -0.25 0.70 -0.45 1.30 -0.45 1.40 0 6.80 -2.65 8.90 -4.45 1 -0.80 2.40 -2.70 3.15 -4.20 1.15 -2.35 1.35 -3.45 1.35 -6.85 0 -6.80 -2.20 -9.95 -9.65 -13.55 -2.25 -1.10 -4.50 -2.25 -4.95 -2.50 -0.50 -0.25 -1.30 -0.45 -1.80 -0.45 -0.50 0 -1.10 -0.20 -1.40 -0.40 -0.25 -0.25 -2.15 -0.95 -4.20 -1.55 -2.05 -0.65 -4.15 -1.35 -4.60 -1.60 -0.50 -0.25 -1.45 -0.45 -2.10 -0.45 -0.70 0 -1.40 -0.20 -1.55 -0.50 -0.15 -0.25 -0.95 -0.50 -1.75 -0.50 -0.80 0 -1.60 -0.20 -1.75 -0.50 -0.15 -0.25 -0.75 -0.50 -1.35 -0.50 -0.90 0 -6.15 -1.55 -8.65 -2.55 -0.55 -0.20 -1.90 -0.70 -3 -1.05 -4.15 -1.35 -11.75 -5.45 -15 -8.15 -6.75 -5.50 -10.75 -11.30 -12.70 -18.50 -1.55 -5.75 -1.95 -16.60 -0.85 -21.50 1.20 -5.25 3.25 -10.25 5.55 -13.65 1.35 -1.95 6.65 -7.50 8.45 -8.85 3.85 -2.80 7.45 -4.80 12.55 -7 11.75 -5 30.70 -6.20 48 -3 2.70 0.50 9.15 2.20 10.50 2.80 0.55 0.20 2.15 0.75 3.50 1.20 1.40 0.45 4.15 1.60 6.15 2.60 l3.60 1.75 0 13.35 0 13.35 -5.10 -2.45 c-2.85 -1.40 -5.70 -2.70 -6.40 -3 -0.70 -0.25 -1.65 -0.65 -2.10 -0.90 -0.50 -0.25 -1.35 -0.45 -1.85 -0.45 -0.55 0 -1.10 -0.20 -1.25 -0.45 -0.15 -0.25 -0.90 -0.55 -1.65 -0.70 -0.80 -0.10 -2.65 -0.55 -4.15 -0.95 -1.50 -0.40 -4 -1 -5.50 -1.30 -1.50 -0.30 -3.95 -0.75 -5.40 -1.05 -3.45 -0.70 -13.75 -0.70 -17.20 0 -4.40 0.85 -5.85 1.30 -10.10 3.20 -2.75 1.20 -6 4.40 -7.25 7 -1.30 2.75 -1.45 8.70 -0.30 11.40 1.80 4.35 7.70 8.25 17 11.35 2.75 0.90 5.45 1.80 6 2.05 0.55 0.20 1.55 0.50 2.25 0.70 1.40 0.35 2.50 0.65 8 2.20 2.05 0.60 5 1.40 6.50 1.85 5.80 1.55 14 5.30 18.90 8.65 3 2 9.10 7.75 9.10 8.55 0 0.25 0.30 0.75 0.65 1.10 1.10 1.15 3.35 6.15 4.25 9.40 1.30 4.65 1.60 7.05 1.60 13.55 0 6.55 -0.25 8.70 -1.60 13.70 -1.05 3.95 -3.75 9.50 -6.10 12.50 -1.75 2.30 -7.30 7.75 -7.85 7.75 -0.20 0 -0.70 0.30 -1.05 0.65 -2.90 2.65 -13.35 7 -19.90 8.25 -1.50 0.30 -4 0.80 -5.50 1.10 -3.45 0.70 -20.85 1.05 -26.50 0.50z"/>
  <path d="M255 744.40 c0 -0.10 -0.05 -33.30 -0.15 -73.80 l-0.10 -73.65 35.75 0.20 c20.65 0.15 37 0.45 38.75 0.75 1.65 0.25 3.90 0.65 5 0.80 9.85 1.65 20.50 6.70 26.70 12.70 2.25 2.25 6.05 7.20 6.05 8 0 0.35 0.20 0.60 0.40 0.60 0.65 0 3.75 7 4.65 10.50 2.75 10.50 2.45 22.55 -0.80 31.75 -0.50 1.55 -3.40 7.45 -3.75 7.75 -0.15 0.15 -0.85 1.05 -1.50 2 -1.45 2.10 -5.50 6.20 -8.30 8.35 -2.35 1.85 -8 4.75 -11.50 5.95 -1.35 0.45 -2.55 0.90 -2.60 0.95 -0.10 0.10 1.70 3.30 4 7.10 2.30 3.80 4.55 7.45 4.95 8.15 0.40 0.70 0.80 1.35 0.95 1.50 0.15 0.15 0.80 1.25 1.45 2.50 0.70 1.25 1.35 2.35 1.50 2.50 0.30 0.25 0.85 1.20 2.25 3.75 0.30 0.55 0.65 1.10 0.80 1.25 0.15 0.15 0.60 0.80 1 1.50 0.40 0.70 4.30 7.20 8.65 14.45 4.35 7.25 8.05 13.50 8.20 13.90 0.20 0.55 -2.40 0.65 -16.15 0.55 l-16.40 -0.15 -1.30 -2.50 c-0.75 -1.35 -2.25 -4.05 -3.40 -5.95 -1.15 -1.85 -2.10 -3.50 -2.10 -3.60 0 -0.10 -1 -1.85 -2.20 -3.85 -1.20 -1.95 -2.70 -4.60 -3.40 -5.85 -0.70 -1.25 -2.45 -4.25 -3.90 -6.75 -2.85 -4.85 -8.15 -13.95 -11.30 -19.35 l-1.95 -3.40 -15.10 0 -15.15 0 -0.10 25.65 -0.15 25.60 -14.85 0.15 c-8.20 0.05 -14.90 0.05 -14.90 0z m66.50 -77.15 c5.50 -0.90 7.05 -1.25 8.25 -1.70 7.25 -2.90 11.50 -7.30 13.70 -14.10 0.80 -2.60 0.70 -11.25 -0.25 -13.90 -1.25 -3.60 -2.20 -5.20 -4.40 -7.30 -2.25 -2.10 -3.55 -2.85 -8.05 -4.55 -2.80 -1 -8.20 -1.35 -26.10 -1.55 l-19.65 -0.20 0 22.05 0 22 16.15 0 c11.50 -0.05 17.30 -0.25 20.35 -0.75z"/>
  <path d="M400 670.75 l0 -73.75 50.25 0 50.25 0 0 13.50 0 13.50 -35.25 0 -35.25 0 0 16.75 0 16.75 31 0 31 0 0 12.50 0 12.50 -31 0 -31 0 0 18.25 0 18.25 35.75 0 35.75 0 0 12.75 0 12.75 -50.75 0 -50.75 0 0 -73.75z"/>
  <path d="M523 670.75 l0 -73.75 30.80 0 c29.35 0 35.40 0.20 42.70 1.55 3.95 0.75 9.95 2.25 11.75 2.95 0.55 0.25 2.35 0.90 4 1.55 3.55 1.35 10.15 4.75 11.15 5.75 0.35 0.40 0.85 0.70 1.10 0.70 0.25 0 0.75 0.30 1.10 0.65 0.35 0.30 1.55 1.25 2.65 2.10 2.30 1.70 10.25 9.60 10.25 10.20 0 0.20 0.45 0.95 1.05 1.60 2.35 2.70 6.60 10.95 8.30 16.20 3.50 10.50 4.35 17.15 4 32 -0.25 10.75 -0.50 13.65 -1.85 20 -0.30 1.40 -0.70 3.25 -0.85 4.15 -0.15 0.90 -0.45 1.75 -0.70 1.90 -0.25 0.15 -0.45 0.70 -0.45 1.25 0 0.50 -0.20 1.35 -0.45 1.85 -0.25 0.45 -0.65 1.40 -0.95 2.10 -3.10 7.80 -8 15.35 -13.85 21.25 -11.60 11.75 -25.30 17.70 -44.25 19.20 -3.15 0.30 -19.20 0.50 -35.60 0.50 l-29.90 0.05 0 -73.75z m66.75 46.55 c6.55 -1.45 13.45 -4.10 15.60 -6 0.35 -0.30 1.50 -1.20 2.55 -2.05 1.05 -0.80 2.55 -2.30 3.35 -3.35 0.85 -1.05 1.75 -2.20 2 -2.55 1.85 -2.10 4.90 -8.95 6.15 -13.60 1.65 -6.15 1.85 -7.90 1.85 -19 0 -11.10 -0.20 -13.15 -1.85 -19.50 -1.75 -6.70 -4.55 -11.85 -8.65 -16.05 -3.20 -3.25 -8.95 -7.20 -10.45 -7.20 -0.30 0 -0.80 -0.20 -1.05 -0.40 -0.85 -0.70 -6.25 -2.20 -11.05 -3.05 -1.75 -0.30 -9.65 -0.55 -19.10 -0.55 l-16.10 0 0 47.30 0 47.35 16.65 -0.30 c12.35 -0.20 17.50 -0.45 20.10 -1.05z"/>
 </g>
 <g fill="#233286">
  <path d="M339.15 549.80 l-20.15 -20.20 131.90 -131.95 c113.95 -114 169.35 -169.65 265.35 -266.55 l19.90 -20.10 20.45 20.35 c11.25 11.25 20.35 20.65 20.30 21 -0.20 0.85 -92.35 93.45 -200.75 201.65 -167.90 167.65 -216.40 216 -216.65 216 -0.15 0 -9.30 -9.10 -20.35 -20.20z"/>
 </g>
 <g fill="#da0000">
  <path d="M418 530.50 c0 -0.25 0.25 -0.50 0.50 -0.50 0.30 0 1 -0.50 1.55 -1.05 0.85 -0.85 1.15 -0.95 1.50 -0.40 0.35 0.60 27.50 0.70 172.30 0.80 94.55 0.10 172.15 -0.05 172.50 -0.25 0.95 -0.60 1.15 -68 0.25 -68.35 -0.40 -0.15 -63.20 -0.20 -139.60 -0.10 -76.40 0.05 -138.80 -0.05 -138.65 -0.25 0.35 -0.60 281.65 -0.50 281.65 0.05 0 0.30 -0.20 0.65 -0.50 0.80 -0.35 0.20 -0.50 12.40 -0.50 35.05 l0 34.70 -175.50 0 c-116.65 0 -175.50 -0.15 -175.50 -0.50z"/>
  <path d="M434.75 514 c6.85 -6.85 12.60 -12.50 12.75 -12.50 0.15 0 -5.40 5.65 -12.25 12.50 -6.85 6.90 -12.60 12.50 -12.75 12.50 -0.15 0 5.40 -5.60 12.25 -12.50z"/>
  <path d="M451.05 498.15 c0 -0.25 0.95 -1.20 2.10 -2.15 l2.10 -1.70 -2 2.10 c-2 2.15 -2.30 2.35 -2.20 1.75z"/>
  <path d="M476 473.25 c0.95 -0.95 1.80 -1.75 1.95 -1.75 0.15 0 -0.50 0.80 -1.45 1.75 -0.95 0.95 -1.80 1.75 -1.95 1.75 -0.15 0 0.50 -0.80 1.45 -1.75z"/>
  <path d="M483.50 465.75 c2.35 -2.35 4.35 -4.25 4.50 -4.25 0.10 0 -1.65 1.90 -4 4.25 -2.35 2.35 -4.35 4.25 -4.50 4.25 -0.10 0 1.65 -1.90 4 -4.25z"/>
  <path d="M255.05 420.25 c0 -0.80 0.10 -1.25 0.25 -1 0.15 0.35 25.85 0.45 76 0.40 l75.85 -0.05 3.05 -3.05 c1.70 -1.70 3.50 -3.05 4.05 -3.05 0.75 0 0.85 -0.10 0.30 -0.45 -0.35 -0.25 -0.45 -0.55 -0.20 -0.70 0.25 -0.15 0.75 -0.10 1.15 0.15 0.50 0.30 -0.35 1.45 -3.60 4.70 l-4.30 4.30 -76.30 0.10 -76.30 0.15 0.05 -1.50z"/>
  <path d="M527 421.85 c0 -0.10 15.90 -16.10 35.40 -35.50 l35.35 -35.35 85.65 0 85.60 0 0 35.50 0 35.50 -1.75 0 c-0.95 0 -1.75 -0.20 -1.75 -0.50 0 -0.25 -0.55 -0.50 -1.25 -0.50 -0.70 0 -1.25 0.30 -1.25 0.65 0 0.40 -0.15 0.35 -0.50 -0.15 -0.40 -0.65 -2.20 -0.75 -11.80 -0.65 -8 0.05 -11.45 0.30 -11.70 0.70 -0.30 0.40 -0.45 0.40 -0.60 -0.10 -0.30 -0.90 -26.90 -0.75 -27.50 0.15 -0.30 0.50 -0.40 0.50 -0.40 0.05 0 -0.40 -0.70 -0.65 -1.75 -0.65 -1.05 0 -1.75 0.25 -1.75 0.65 0 0.40 -0.15 0.35 -0.50 -0.15 -0.40 -0.65 -4 -0.75 -27.80 -0.70 -21.05 0.05 -27.40 0.20 -27.70 0.70 -0.25 0.45 -0.45 0.45 -0.55 0.05 -0.25 -0.75 -11.10 -0.85 -11.35 -0.10 -0.25 0.75 -1.60 0.70 -1.60 -0.05 0 -0.50 -0.15 -0.45 -0.45 0.05 -0.35 0.55 -0.45 0.55 -0.70 0 -0.20 -0.50 -0.30 -0.50 -0.30 -0.05 -0.05 0.30 -0.60 0.60 -1.30 0.60 -0.70 0 -1.25 -0.30 -1.25 -0.60 0 -0.50 -0.15 -0.45 -0.45 0.05 -0.35 0.55 -0.45 0.55 -0.70 0 -0.20 -0.50 -0.30 -0.50 -0.30 -0.05 -0.05 0.70 -2.55 0.85 -2.55 0.10 0 -0.75 -2.35 -0.60 -2.65 0.15 -0.20 0.50 -0.30 0.50 -0.30 0 -0.05 -0.35 -0.60 -0.65 -1.30 -0.65 -0.70 0 -1.25 0.30 -1.25 0.65 0 0.45 -0.15 0.40 -0.45 -0.10 -0.35 -0.55 -0.45 -0.55 -0.70 0 -0.20 0.50 -0.30 0.50 -0.30 0.10 -0.05 -0.75 -3.05 -0.90 -3.05 -0.15 0 0.30 -0.45 0.50 -1 0.50 -0.55 0 -1 -0.20 -1 -0.50 0 -0.75 -6.35 -0.65 -6.65 0.15 -0.20 0.50 -0.30 0.50 -0.30 0 -0.05 -0.50 -1.55 -0.65 -5.80 -0.65 -4.25 0 -5.75 0.15 -5.75 0.65 0 0.40 -0.20 0.35 -0.50 -0.15 -0.45 -0.65 -0.50 -0.65 -0.50 0 0 0.60 -0.10 0.65 -0.45 0.05 -0.35 -0.55 -0.45 -0.55 -0.70 0 -0.20 0.50 -0.30 0.50 -0.30 0.10 -0.05 -0.50 -2.65 -0.65 -11.25 -0.65 -8.50 0 -11.30 0.15 -11.45 0.65 -0.20 0.50 -0.30 0.50 -0.30 0 -0.05 -0.50 -1.85 -0.65 -7.25 -0.65 -5.30 0 -7.30 0.15 -7.45 0.65 -0.20 0.50 -0.30 0.50 -0.30 0 -0.05 -0.50 -1.45 -0.65 -5.30 -0.65 -3.85 0 -5.25 0.15 -5.25 0.65 0 0.40 -0.20 0.35 -0.50 -0.15 -0.45 -0.65 -0.50 -0.65 -0.50 0 0 0.65 -0.05 0.65 -0.50 0 -0.45 -0.65 -0.50 -0.65 -0.50 0 0 0.65 -0.05 0.65 -0.50 0 -0.45 -0.65 -0.50 -0.65 -0.50 0 0 0.60 -0.10 0.60 -0.40 0.10 -0.55 -0.80 -8 -1.05 -8.50 -0.30 -0.35 0.45 -9.10 1.05 -9.10 0.55z m239.90 -36.05 c0.05 -19.80 -0.10 -33.60 -0.35 -33.75 -0.25 -0.15 -28.90 -0.25 -63.65 -0.20 -34.70 0.05 -72.70 0.10 -84.40 0.10 l-21.20 0.05 -33.40 33.45 c-18.35 18.40 -33.40 33.60 -33.40 33.75 0 0.45 79.35 0.60 162.25 0.30 l74 -0.25 0.15 -33.45z"/>
  <path d="M255.15 411.25 c0 -1.10 0.10 -1.50 0.20 -0.85 0.10 0.60 0.10 1.50 0 2 -0.15 0.45 -0.25 -0.05 -0.20 -1.15z"/>
  <path d="M416.05 412.05 c-0.50 -0.35 0.70 -1.85 5 -6.25 4.90 -5 7.45 -6.85 7.45 -5.40 0 0.20 -2.65 3 -5.85 6.20 -4.30 4.30 -6.10 5.75 -6.60 5.45z"/>
  <path d="M255.20 393 c0 -6.45 0.10 -9.10 0.15 -5.85 0.10 3.20 0.10 8.50 0 11.75 -0.05 3.20 -0.15 0.55 -0.15 -5.90z"/>
  <path d="M428.35 399.60 c-0.45 -0.10 -0.75 -0.40 -0.60 -0.65 0.40 -0.60 2.25 -0.60 2.25 0 0 0.65 -0.60 0.90 -1.65 0.65z"/>
  <path d="M435.20 391.75 c1.45 -1.55 3.30 -2.35 3.30 -1.40 0 0.85 -2.80 3.15 -3.80 3.15 -1 0 -1 -0.10 0.50 -1.75z"/>
  <path d="M438.35 389.65 c-0.70 -0.20 -0.10 -1 2.75 -3.95 3.15 -3.20 5.40 -4.60 5.40 -3.30 0 0.20 -1.65 1.95 -3.60 3.90 -2.45 2.35 -3.95 3.45 -4.55 3.35z"/>
  <path d="M446.50 381.50 c-0.40 -0.25 -0.55 -0.65 -0.30 -0.85 7.45 -7.45 27.80 -28.30 27.80 -28.55 0 -0.20 -49.10 -0.30 -109.10 -0.20 l-109.15 0.15 -0.30 2.35 -0.30 2.35 -0.05 -2.85 -0.10 -2.90 111.80 0 111.75 0 -3.45 3.40 c-1.90 1.85 -8.95 8.80 -15.65 15.45 -9.40 9.35 -12.35 12 -12.95 11.65z"/>
  <path d="M255.10 379 c0 -0.95 0.10 -1.35 0.25 -0.85 0.10 0.45 0.10 1.25 0 1.75 -0.15 0.45 -0.25 0.05 -0.25 -0.90z"/>
  <path d="M255.20 371 c0 -3.15 0.05 -4.45 0.15 -2.85 0.10 1.55 0.10 4.15 0 5.75 -0.10 1.55 -0.15 0.25 -0.15 -2.90z"/>
  <path d="M255.15 361 c0 -2.05 0.10 -2.90 0.20 -1.85 0.10 1 0.10 2.70 0 3.75 -0.10 1 -0.20 0.15 -0.20 -1.90z"/>
  <path d="M255 311.60 l0 -1.35 3.45 0.25 c6.75 0.50 257.05 -0.25 257.45 -0.75 0.20 -0.30 1.80 -1.75 3.60 -3.25 1.80 -1.50 3.55 -3.05 3.90 -3.35 0.80 -0.80 2.10 -0.85 2.10 -0.10 0 0.55 -0.40 0.90 -6.65 6.85 l-3.35 3.10 -130.25 0 -130.25 0 0 -1.40z"/>
  <path d="M637.05 311.75 l1.25 -1.25 64.35 -0.15 64.40 -0.10 -0.05 -33.70 c0 -18.55 -0.05 -33.75 -0.10 -33.85 -0.10 -0.05 -13.60 -0.20 -30 -0.30 l-29.85 -0.15 -2.40 2.25 c-1.30 1.25 -1.95 1.70 -1.40 1 0.55 -0.70 1.65 -1.85 2.45 -2.60 l1.50 -1.40 30.90 0 30.90 0 0 35.75 0 35.75 -66.60 0 -66.65 0 1.30 -1.25z"/>
  <path d="M255.25 276.25 c0 -18.15 0.05 -25.50 0.10 -16.35 0.10 9.20 0.10 24.05 0 33 -0.05 9 -0.10 1.50 -0.10 -16.65z"/>
  <path d="M525.70 302.35 c-0.40 -0.45 -0.25 -0.85 0.60 -1.45 2.10 -1.70 3.05 -0.85 1.10 0.95 -0.85 0.80 -1.30 0.90 -1.70 0.50z"/>
  <path d="M528.50 299.50 c-0.60 -0.35 -0.30 -0.90 1.60 -2.75 2.10 -2.05 3.90 -2.90 3.90 -1.85 0 0.20 -1.05 1.45 -2.35 2.75 -1.80 1.70 -2.60 2.20 -3.15 1.85z"/>
  <path d="M543.65 284.25 c-0.65 -0.70 0.05 -1.75 1.20 -1.75 0.85 0 0.85 0.90 0 1.70 -0.50 0.50 -0.75 0.50 -1.20 0.05z"/>
  <path d="M546.60 281.20 c-0.50 -0.60 -0.50 -0.70 0.10 -0.70 0.85 0 1.50 0.80 0.95 1.15 -0.25 0.15 -0.70 -0.05 -1.05 -0.45z"/>
  <path d="M548 279.50 c-0.60 -0.40 -0.60 -0.50 0.10 -0.75 1 -0.40 2.05 0.10 1.65 0.80 -0.40 0.55 -0.80 0.55 -1.75 -0.05z"/>
  <path d="M552 275.50 c-0.60 -0.40 -0.60 -0.50 0.15 -0.80 0.50 -0.15 1.05 -0.20 1.20 0 0.15 0.15 0.65 0 1.10 -0.30 0.50 -0.40 0.45 -0.20 -0.15 0.50 -1.05 1.25 -1.25 1.30 -2.30 0.60z"/>
  <path d="M556.70 272.05 c0.25 -0.40 0.15 -0.85 -0.25 -1.10 -0.55 -0.35 -0.55 -0.45 0.15 -0.45 1.25 0 1.50 0.80 0.55 1.55 -0.70 0.60 -0.80 0.60 -0.45 0z"/>
  <path d="M558 269.50 c-0.60 -0.40 -0.60 -0.50 0.10 -0.75 1 -0.40 2.05 0.10 1.65 0.80 -0.40 0.55 -0.80 0.55 -1.75 -0.05z"/>
  <path d="M566.55 261.50 c-0.55 -0.30 0.85 -2.05 5.75 -7.05 10.35 -10.65 11.20 -11.60 10.95 -11.85 -0.45 -0.50 -327 -0.45 -327.60 0.05 -0.45 0.35 -0.65 0.25 -0.65 -0.35 0 -0.75 13.25 -0.80 166.25 -0.80 91.45 0 166.25 0.10 166.25 0.20 0 0.15 -16.95 17.05 -20.20 20.15 -0.05 0.05 -0.40 -0.10 -0.75 -0.35z"/>
  <path d="M254.70 202.20 c0.15 -0.45 0.30 -1.25 0.30 -1.85 0 -0.85 0.10 -0.95 0.45 -0.40 0.40 0.65 24.35 0.75 185.10 0.60 l184.60 -0.10 29.50 -29.35 c33.45 -33.25 36.60 -36.50 36.60 -37.25 0 -0.65 23.90 -0.60 -224.60 -0.45 l-211.15 0.10 -0.15 23.90 -0.10 23.85 -0.15 -24.70 -0.10 -24.65 220.50 0.15 c121.25 0.10 220.50 0.30 220.50 0.40 0 0.10 -15.85 16 -35.20 35.35 -34.25 34.20 -35.25 35.15 -37 35.05 -1 -0.05 -1.80 -0.25 -1.80 -0.45 0 -0.25 -1.10 -0.40 -2.50 -0.40 -1.35 0 -2.50 0.25 -2.50 0.50 0 0.30 -1.25 0.50 -2.75 0.50 -1.50 0 -2.75 -0.20 -2.75 -0.50 0 -0.25 -0.55 -0.50 -1.25 -0.50 -0.70 0 -1.25 0.25 -1.25 0.50 0 0.35 -59.45 0.50 -177.30 0.50 -161.50 0 -177.30 -0.05 -177 -0.80z"/>
  <path d="M255.15 184.25 c0 -1.65 0.10 -2.25 0.20 -1.35 0.10 0.90 0.10 2.25 0 3 -0.10 0.75 -0.20 0 -0.20 -1.65z"/>
 </g>
</svg>