<?xml version="1.0" encoding="utf-8"?>
<!-- Generator: Adobe Illustrator 25.0.1, SVG Export Plug-In . SVG Version: 6.00 Build 0)  -->
<svg version="1.1" id="Layer_1" xmlns="http://www.w3.org/2000/svg" 
     xmlns:xlink="http://www.w3.org/1999/xlink" x="0px" y="0px"
     viewBox="0 0 386.28 188.89" style="enable-background:new 0 0 386.28 188.89;" xml:space="preserve">
<style type="text/css">
  .st0 {
    fill: #D02027;
    stroke: #D02027;
    stroke-width: 9.1415;
    stroke-miterlimit: 10;
    animation: sticker-bounce 0.4s ease forwards;
    animation-iteration-count: 1; /* solo una vez */
  }

  .st1 {
    fill: none;
    stroke: #343239;
    stroke-width: 24.2399;
    stroke-miterlimit: 10;
  }

  .st2 {
    fill: #2A307B;
    stroke: #2A307B;
    stroke-width: 5.5696;
    stroke-miterlimit: 10;
  }

  .st3 {
    fill: #2A307B;
  }

  .diagonal-group {
    animation: diagonal-slide 3s ease forwards;
  }

  /* Movimiento pegado y vuelta, termina y queda original */
  @keyframes sticker-bounce {
    0% { transform: translateX(0); }
    50% { transform: translateX(5px); }
    100% { transform: translateX(0); }
  }

  /* Línea diagonal se mueve 15px en diagonal y queda fija */
  @keyframes diagonal-slide {
    0% { transform: translate(0, 0); }
    100% { transform: translate(15px, -15px); }
  }
</style>

<!-- Líneas horizontales rojas animadas una vez -->
<rect x="25.83" y="22.26" class="st0" width="160.94" height="17.4"/>
<rect x="25.83" y="65" class="st0" width="160.94" height="17.4"/>
<rect x="25.83" y="106.15" class="st0" width="160.94" height="17.4"/>

<!-- Línea gris horizontal gruesa -->
<line class="st1" x1="59.23" y1="154" x2="191.4" y2="154"/>

<!-- Línea diagonal azul animada -->
<g class="diagonal-group">
  <rect x="25.26" y="80.18"
        transform="matrix(0.7071 -0.7071 0.7071 0.7071 -27.548 111.1325)"
        class="st2"
        width="190.22" height="17.27" />
</g>

<!-- Resto del logo sin animación -->
<path d="M205.86,18.15h9.56V9.81h11.39v8.34h40.89l1.93,10.98c-10.78,9.97-23.19,18.21-34.68,24.21l-5.9-10.27
  c7.93-3.66,14.65-7.83,21.26-12.82h-23.5v54.11h-11.39V30.26h-9.56V18.15z M246.85,52.53c7.63,8.44,14.75,17.6,21.46,27.56
  l-9.36,7.32c-6.31-9.87-13.83-19.22-21.46-27.56L246.85,52.53z"/>
<path d="M275.93,19.58h48.72v12.1h-29.7v12h41.9v12.21h-41.9v9.46c0,6.71,1.83,9.97,8.44,9.97h29.8l-2.75,12.1h-27.26
  c-14.44,0-19.63-7.53-19.63-22.07v-9.46h-9.66V43.68h9.66v-12h-7.63V19.58z"/>
<path class="st3" d="M259.68,107.27h-32.24v25.02h-11.29V95.17h54.92v22.17c0,28.48-23.39,43.63-48.72,45.67l-3.56-12
  c20.04,0,40.89-12,40.89-32.95V107.27z"/>
<path d="M337.38,131.28v9.66c0,14.54-5.19,22.07-19.63,22.07h-35.8v-12.1h35.6c6.71,0,8.54-3.26,8.54-9.97v-9.66h-26.24
  c-9.15,0-14.14-5.39-14.14-15.16v-8.85h-6.81v-12.1h58.89v12.1H297v8.85c0,2.03,0.61,2.95,2.85,2.95h40.99v12.21H337.38z"/>
</svg>
